<?xml version="1.0" encoding="UTF-8" standalone="no"?><!DOCTYPE svg PUBLIC "-//W3C//DTD SVG 1.1//EN" "http://www.w3.org/Graphics/SVG/1.1/DTD/svg11.dtd"><svg width="100%" height="100%" viewBox="0 0 4227 4227" version="1.1" xmlns="http://www.w3.org/2000/svg" xmlns:xlink="http://www.w3.org/1999/xlink" xml:space="preserve" xmlns:serif="http://www.serif.com/" style="fill-rule:evenodd;clip-rule:evenodd;stroke-linejoin:round;stroke-miterlimit:1.41421;"><path d="M2716.15,20.3c-66.3,39.1 -176.4,149.9 -307.9,310.4l120.8,228c84.8,-121.3 170.9,-230.4 257.8,-323.6c6.7,-7.4 10.2,-10.9 10.2,-10.9c-3.4,3.6 -6.8,7.3 -10.2,10.9c-28.1,31 -113.4,130.5 -242.1,328.1c123.9,-6.2 314.3,-31.5 469.6,-58.1c46.2,-258.8 -45.3,-377.3 -45.3,-377.3c0,0 -116.3,-188.2 -252.9,-107.5Z" style="fill:url(#_Linear1);fill-rule:nonzero;"/><path d="M2511.65,1320.9c0.9,-0.2 1.8,-0.3 2.7,-0.5l-17.4,1.9c-1.1,0.5 -2,1 -3.1,1.4c6,-0.9 11.9,-1.9 17.8,-2.8Z" style="fill:none;"/><path d="M2388.35,1729.3c-9.9,2.2 -20,3.9 -30.2,5.4c10.2,-1.5 20.3,-3.3 30.2,-5.4Z" style="fill:none;"/><path d="M1550.35,2645.4c1.3,-3.4 2.6,-6.8 3.8,-10.2c26.6,-70.2 52.9,-138.4 79,-204.9c29.3,-74.6 58.2,-146.8 86.8,-216.8c30.1,-73.8 59.8,-145.1 89.1,-214c30.7,-72.3 61,-141.9 90.7,-208.9c24.2,-54.5 48,-107.3 71.5,-158.4c7.8,-17 15.6,-33.9 23.4,-50.6c15.4,-33.1 30.7,-65.6 45.7,-97.3c13.9,-29.3 27.7,-57.9 41.4,-86c4.5,-9.4 9.1,-18.6 13.6,-27.9c0.7,-1.5 1.5,-3 2.2,-4.5l-14.8,1.6l-11.8,-23.2c-1.1,2.3 -2.3,4.5 -3.5,6.8c-21.2,42.1 -42.2,84.6 -63,127.5c-12,24.8 -24,49.7 -35.9,74.7c-33,69.3 -65.5,139.2 -97.4,209.6c-32.3,71.1 -63.9,142.6 -94.9,214.2c-30.5,70.3 -60.3,140.7 -89.6,210.9c-29.2,70.1 -57.7,140 -85.6,209.4c-29.1,72.5 -57.4,144.3 -84.8,215.3c-6.2,16 -12.4,32 -18.5,48c-22,57.3 -43.4,113.8 -64.3,169.6l18.6,36.7l16.6,-1.8c0.6,-1.7 1.2,-3.4 1.8,-5c26.9,-73.5 53.5,-145.1 79.9,-214.8Z" style="fill:none;"/><path d="M2350.45,1735.9c0.1,0 0.1,-0.1 0.2,-0.1c0,0 -0.1,0 -0.2,0.1Z" style="fill:none;"/><path d="M2310.45,1935c-15.4,2.8 -31.3,5.5 -47.6,8.3c-0.1,0 -0.2,0.1 -0.3,0.1c8.2,-1.2 16.3,-2.4 24.3,-3.8c8,-1.4 15.8,-2.9 23.6,-4.6Z" style="fill:#be202e;fill-rule:nonzero;"/><path d="M2310.45,1935c-15.4,2.8 -31.3,5.5 -47.6,8.3c-0.1,0 -0.2,0.1 -0.3,0.1c8.2,-1.2 16.3,-2.4 24.3,-3.8c8,-1.4 15.8,-2.9 23.6,-4.6Z" style="fill:#be202e;fill-opacity:0.35;fill-rule:nonzero;"/><path d="M2350.85,1735.7c0,0 -0.1,0 -0.1,0.1c-0.1,0 -0.1,0.1 -0.2,0.1c2.6,-0.3 5.1,-0.8 7.6,-1.1c10.3,-1.5 20.4,-3.3 30.2,-5.4c-12.3,2 -24.8,4.2 -37.5,6.3Z" style="fill:#be202e;fill-rule:nonzero;"/><path d="M2350.85,1735.7c0,0 -0.1,0 -0.1,0.1c-0.1,0 -0.1,0.1 -0.2,0.1c2.6,-0.3 5.1,-0.8 7.6,-1.1c10.3,-1.5 20.4,-3.3 30.2,-5.4c-12.3,2 -24.8,4.2 -37.5,6.3Z" style="fill:#be202e;fill-opacity:0.35;fill-rule:nonzero;"/><path d="M2172.95,1147.8c36.7,-68.6 73.9,-135.7 111.5,-201c39,-67.8 78.5,-133.6 118.4,-197c2.3,-3.7 4.7,-7.5 7,-11.3c39.4,-62.4 79.2,-122.4 119.3,-179.8l-120.8,-228c-9.1,11.1 -18.2,22.4 -27.5,33.9c-34.8,43.4 -71,90.1 -108.1,139.6c-41.8,55.8 -84.8,115.4 -128.5,177.9c-40.3,57.8 -81.2,118.3 -122.1,180.9c-34.8,53.3 -69.8,108.2 -104.5,164.5c-1.3,2.1 -2.6,4.2 -3.9,6.3l157.2,310.5c33.6,-66.5 67.6,-132.1 102,-196.5Z" style="fill:url(#_Linear2);fill-rule:nonzero;"/><path d="M1456.95,2897.3c-20.8,57.2 -41.7,115.4 -62.7,174.9c-0.3,0.9 -0.6,1.7 -0.9,2.6c-3,8.4 -5.9,16.8 -8.9,25.2c-14.1,40.1 -26.4,76.2 -54.5,158.3c46.3,21.1 83.5,76.7 118.7,139.8c-3.7,-65.3 -30.8,-126.7 -82.1,-174.2c228.3,10.3 425,-47.4 526.7,-214.3c9.1,-14.9 17.4,-30.5 24.9,-47.2c-46.2,58.6 -103.5,83.5 -211.4,77.4c-0.2,0.1 -0.5,0.2 -0.7,0.3c0.2,-0.1 0.5,-0.2 0.7,-0.3c158.8,-71.1 238.5,-139.3 308.9,-252.4c16.7,-26.8 32.9,-56.1 49.5,-88.6c-138.9,142.6 -299.8,183.2 -469.3,152.4l-127.1,13.9c-4,10.7 -7.9,21.4 -11.8,32.2Z" style="fill:url(#_Linear3);fill-rule:nonzero;"/><path d="M1516.25,2612.6c27.5,-71 55.8,-142.8 84.8,-215.3c27.8,-69.4 56.4,-139.2 85.6,-209.4c29.2,-70.2 59.1,-140.5 89.6,-210.9c31,-71.6 62.7,-143.1 94.9,-214.2c31.9,-70.3 64.4,-140.3 97.4,-209.6c11.9,-25 23.9,-49.9 35.9,-74.7c20.8,-42.9 41.8,-85.4 63,-127.5c1.1,-2.3 2.3,-4.5 3.5,-6.8l-157.2,-310.5c-2.6,4.2 -5.1,8.4 -7.7,12.6c-36.6,59.8 -73.1,121 -108.9,183.5c-36.2,63.1 -71.7,127.4 -106.4,192.6c-29.3,55 -57.9,110.5 -85.7,166.5c-5.6,11.4 -11.1,22.6 -16.6,33.9c-34.3,70.5 -65.2,138.6 -93.2,204.1c-31.7,74.2 -59.6,145.1 -84,212.3c-16.1,44.2 -30.7,86.9 -44.1,127.9c-11,35 -21.5,70.1 -31.4,105c-23.5,82.3 -43.7,164.4 -60.3,246.2l158,311.9c20.9,-55.8 42.3,-112.3 64.3,-169.6c6.1,-15.9 12.3,-32 18.5,-48Z" style="fill:url(#_Linear4);fill-rule:nonzero;"/><path d="M1273.35,2529.4c-19.8,99.8 -33.9,199.2 -41,298c-0.2,3.5 -0.6,6.9 -0.8,10.4c-49.3,-79 -181.3,-156.1 -181,-155.4c94.5,137 166.2,273 176.9,406.5c-50.6,10.4 -119.9,-4.6 -200,-34.1c83.5,76.7 146.2,97.9 170.6,103.6c-76.7,4.8 -156.6,57.5 -237.1,118.2c117.7,-48 212.8,-67 280.9,-51.6c-108,305.8 -216.3,643.4 -324.6,1001.8c33.2,-9.8 53,-32.1 64.1,-62.3c19.3,-64.9 147.4,-490.7 348.1,-1050.4c5.7,-15.9 11.5,-31.9 17.3,-48c1.6,-4.5 3.3,-9 4.9,-13.4c21.2,-58.7 43.2,-118.6 65.9,-179.7c5.2,-13.9 10.4,-27.8 15.6,-41.8c0.1,-0.3 0.2,-0.6 0.3,-0.8l-157.8,-311.8c-0.7,3.5 -1.6,7.1 -2.3,10.8Z" style="fill:url(#_Linear5);fill-rule:nonzero;"/><path d="M2095.35,1370.5c-4.5,9.2 -9,18.5 -13.6,27.9c-13.6,28.1 -27.4,56.7 -41.4,86c-15.1,31.7 -30.3,64.1 -45.7,97.3c-7.8,16.7 -15.5,33.5 -23.4,50.6c-23.5,51.1 -47.3,103.9 -71.5,158.4c-29.7,67 -60,136.6 -90.7,208.9c-29.3,68.9 -59,140.2 -89.1,214c-28.6,70 -57.5,142.3 -86.8,216.8c-26.1,66.5 -52.4,134.7 -79,204.9c-1.3,3.4 -2.6,6.8 -3.8,10.2c-26.4,69.7 -53,141.3 -79.8,214.7c-0.6,1.7 -1.2,3.4 -1.8,5l127.1,-13.9c-2.5,-0.5 -5.1,-0.8 -7.6,-1.3c152,-18.9 354,-132.5 484.6,-272.7c60.2,-64.6 114.8,-140.8 165.3,-230c37.6,-66.4 72.9,-140 106.5,-221.5c29.4,-71.2 57.6,-148.3 84.8,-231.9c-34.9,18.4 -74.9,31.9 -119,41.3c-7.7,1.6 -15.6,3.2 -23.6,4.6c-8,1.4 -16.1,2.7 -24.3,3.8c0.1,0 0.2,-0.1 0.3,-0.1c141.7,-54.5 231.1,-159.8 296.1,-288.7c-37.3,25.4 -97.9,58.7 -170.5,74.7c-9.9,2.2 -20,3.9 -30.2,5.4c-2.6,0.4 -5.1,0.8 -7.6,1.1c0.1,0 0.1,-0.1 0.2,-0.1c0,0 0.1,0 0.1,-0.1c49.2,-20.6 90.7,-43.6 126.7,-70.8c7.7,-5.8 15.2,-11.8 22.4,-18.1c11,-9.5 21.4,-19.5 31.4,-30c6.4,-6.7 12.6,-13.6 18.6,-20.8c14.1,-16.8 27.3,-34.9 39.7,-54.6c3.8,-6 7.5,-12.1 11.2,-18.4c4.7,-9.1 9.2,-18 13.6,-26.8c19.8,-39.8 35.6,-75.3 48.2,-106.5c6.3,-15.6 11.8,-30 16.5,-43.4c1.9,-5.3 3.7,-10.5 5.4,-15.5c5,-15 9.1,-28.3 12.3,-40c4.8,-17.5 7.7,-31.4 9.3,-41.5c-4.8,3.8 -10.3,7.6 -16.5,11.3c-42.8,25.6 -116.2,48.8 -175.4,59.7l116.7,-12.8l-116.7,12.8c-0.9,0.2 -1.8,0.3 -2.7,0.5c-5.9,1 -11.9,1.9 -17.9,2.9c1.1,-0.5 2,-1 3.1,-1.4l-399.3,43.8c-0.7,1.4 -1.4,2.8 -2.2,4.3Z" style="fill:url(#_Linear6);fill-rule:nonzero;"/><path d="M2544.85,563.3c-35.5,54.5 -74.3,116.4 -116,186.5c-2.2,3.6 -4.4,7.4 -6.6,11.1c-36,60.7 -74.3,127.3 -114.5,200.3c-34.8,63 -71,130.6 -108.6,203.3c-32.8,63.3 -66.7,130.5 -101.5,201.6l399.3,-43.8c116.3,-53.5 168.3,-101.9 218.8,-171.9c13.4,-19.3 26.9,-39.5 40.3,-60.4c41,-64 81.2,-134.5 117.2,-204.6c34.7,-67.7 65.3,-134.8 88.8,-195.3c14.9,-38.5 26.9,-74.3 35.2,-105.7c7.3,-27.7 13,-54 17.4,-79.1c-155.5,26.5 -345.9,51.9 -469.8,58Z" style="fill:url(#_Linear7);fill-rule:nonzero;"/><path d="M2286.85,1939.6c-8,1.4 -16.1,2.7 -24.3,3.8c8.2,-1.1 16.3,-2.4 24.3,-3.8Z" style="fill:#be202e;fill-rule:nonzero;"/><path d="M2286.85,1939.6c-8,1.4 -16.1,2.7 -24.3,3.8c8.2,-1.1 16.3,-2.4 24.3,-3.8Z" style="fill:#be202e;fill-opacity:0.35;fill-rule:nonzero;"/><path d="M2286.85,1939.6c-8,1.4 -16.1,2.7 -24.3,3.8c8.2,-1.1 16.3,-2.4 24.3,-3.8Z" style="fill:url(#_Linear8);fill-rule:nonzero;"/><path d="M2350.45,1735.9c2.6,-0.3 5.1,-0.8 7.6,-1.1c-2.5,0.3 -5,0.7 -7.6,1.1Z" style="fill:#be202e;fill-rule:nonzero;"/><path d="M2350.45,1735.9c2.6,-0.3 5.1,-0.8 7.6,-1.1c-2.5,0.3 -5,0.7 -7.6,1.1Z" style="fill:#be202e;fill-opacity:0.35;fill-rule:nonzero;"/><path d="M2350.45,1735.9c2.6,-0.3 5.1,-0.8 7.6,-1.1c-2.5,0.3 -5,0.7 -7.6,1.1Z" style="fill:url(#_Linear9);fill-rule:nonzero;"/><path d="M2350.75,1735.8c0,0 0.1,0 0.1,-0.1c0,0 -0.1,0 -0.1,0.1Z" style="fill:#be202e;fill-rule:nonzero;"/><path d="M2350.75,1735.8c0,0 0.1,0 0.1,-0.1c0,0 -0.1,0 -0.1,0.1Z" style="fill:#be202e;fill-opacity:0.35;fill-rule:nonzero;"/><path d="M2350.75,1735.8c0,0 0.1,0 0.1,-0.1c0,0 -0.1,0 -0.1,0.1Z" style="fill:url(#_Linear10);fill-rule:nonzero;"/><path d="M3135.95,387.2l0,11.7l27.4,0l0,77.4l12.7,0l0,-77.4l27.6,0l0,-11.7l-67.7,0Zm158.3,0l-30.6,62.2l-30.8,-62.2l-15.3,0l0,89.1l11.7,0l0,-70.7l30.3,61.3l8.1,0l30.3,-61.3l0,70.7l11.7,0l0,-89.1l-15.4,0Z" style="fill:#6d6e71;fill-rule:nonzero;"/><defs><linearGradient id="_Linear1" x1="0" y1="0" x2="1" y2="0" gradientUnits="userSpaceOnUse" gradientTransform="matrix(884.939,-246.041,246.041,884.939,2510.64,358.628)"><stop offset="0" style="stop-color:#f69923;stop-opacity:1"/><stop offset="0.31" style="stop-color:#f79a23;stop-opacity:1"/><stop offset="0.84" style="stop-color:#e97826;stop-opacity:1"/><stop offset="1" style="stop-color:#e97826;stop-opacity:1"/></linearGradient><linearGradient id="_Linear2" x1="0" y1="0" x2="1" y2="0" gradientUnits="userSpaceOnUse" gradientTransform="matrix(1799.91,-3860.05,3860.05,1799.91,573.659,4330.32)"><stop offset="0" style="stop-color:#9e2064;stop-opacity:1"/><stop offset="0.32" style="stop-color:#9e2064;stop-opacity:1"/><stop offset="0.63" style="stop-color:#c92037;stop-opacity:1"/><stop offset="0.75" style="stop-color:#cd2335;stop-opacity:1"/><stop offset="1" style="stop-color:#e97826;stop-opacity:1"/></linearGradient><linearGradient id="_Linear3" x1="0" y1="0" x2="1" y2="0" gradientUnits="userSpaceOnUse" gradientTransform="matrix(1072.57,-2300.22,2300.22,1072.57,1178.09,4044.89)"><stop offset="0" style="stop-color:#282662;stop-opacity:1"/><stop offset="0.1" style="stop-color:#662e8d;stop-opacity:1"/><stop offset="0.79" style="stop-color:#9f2064;stop-opacity:1"/><stop offset="0.95" style="stop-color:#cd2032;stop-opacity:1"/><stop offset="1" style="stop-color:#cd2032;stop-opacity:1"/></linearGradient><linearGradient id="_Linear4" x1="0" y1="0" x2="1" y2="0" gradientUnits="userSpaceOnUse" gradientTransform="matrix(1799.91,-3860.05,3860.05,1799.91,638.782,4096.75)"><stop offset="0" style="stop-color:#9e2064;stop-opacity:1"/><stop offset="0.32" style="stop-color:#9e2064;stop-opacity:1"/><stop offset="0.63" style="stop-color:#c92037;stop-opacity:1"/><stop offset="0.75" style="stop-color:#cd2335;stop-opacity:1"/><stop offset="1" style="stop-color:#e97826;stop-opacity:1"/></linearGradient><linearGradient id="_Linear5" x1="0" y1="0" x2="1" y2="0" gradientUnits="userSpaceOnUse" gradientTransform="matrix(945.906,-2028.57,2028.57,945.906,822.276,3839.58)"><stop offset="0" style="stop-color:#282662;stop-opacity:1"/><stop offset="0.1" style="stop-color:#662e8d;stop-opacity:1"/><stop offset="0.79" style="stop-color:#9f2064;stop-opacity:1"/><stop offset="0.95" style="stop-color:#cd2032;stop-opacity:1"/><stop offset="1" style="stop-color:#cd2032;stop-opacity:1"/></linearGradient><linearGradient id="_Linear6" x1="0" y1="0" x2="1" y2="0" gradientUnits="userSpaceOnUse" gradientTransform="matrix(1799.91,-3860.05,3860.05,1799.91,1038.28,4283.03)"><stop offset="0" style="stop-color:#9e2064;stop-opacity:1"/><stop offset="0.32" style="stop-color:#9e2064;stop-opacity:1"/><stop offset="0.63" style="stop-color:#c92037;stop-opacity:1"/><stop offset="0.75" style="stop-color:#cd2335;stop-opacity:1"/><stop offset="1" style="stop-color:#e97826;stop-opacity:1"/></linearGradient><linearGradient id="_Linear7" x1="0" y1="0" x2="1" y2="0" gradientUnits="userSpaceOnUse" gradientTransform="matrix(1799.91,-3860.05,3860.05,1799.91,906.792,4513.23)"><stop offset="0" style="stop-color:#9e2064;stop-opacity:1"/><stop offset="0.32" style="stop-color:#9e2064;stop-opacity:1"/><stop offset="0.63" style="stop-color:#c92037;stop-opacity:1"/><stop offset="0.75" style="stop-color:#cd2335;stop-opacity:1"/><stop offset="1" style="stop-color:#e97826;stop-opacity:1"/></linearGradient><linearGradient id="_Linear8" x1="0" y1="0" x2="1" y2="0" gradientUnits="userSpaceOnUse" gradientTransform="matrix(1799.91,-3860.05,3860.05,1799.91,1157.1,4338.44)"><stop offset="0" style="stop-color:#9e2064;stop-opacity:1"/><stop offset="0.32" style="stop-color:#9e2064;stop-opacity:1"/><stop offset="0.63" style="stop-color:#c92037;stop-opacity:1"/><stop offset="0.75" style="stop-color:#cd2335;stop-opacity:1"/><stop offset="1" style="stop-color:#e97826;stop-opacity:1"/></linearGradient><linearGradient id="_Linear9" x1="0" y1="0" x2="1" y2="0" gradientUnits="userSpaceOnUse" gradientTransform="matrix(1799.91,-3860.05,3860.05,1799.91,1143.51,4332.1)"><stop offset="0" style="stop-color:#9e2064;stop-opacity:1"/><stop offset="0.32" style="stop-color:#9e2064;stop-opacity:1"/><stop offset="0.63" style="stop-color:#c92037;stop-opacity:1"/><stop offset="0.75" style="stop-color:#cd2335;stop-opacity:1"/><stop offset="1" style="stop-color:#e97826;stop-opacity:1"/></linearGradient><linearGradient id="_Linear10" x1="0" y1="0" x2="1" y2="0" gradientUnits="userSpaceOnUse" gradientTransform="matrix(397.839,-853.198,853.198,397.839,2151.94,2162.31)"><stop offset="0" style="stop-color:#9e2064;stop-opacity:1"/><stop offset="0.32" style="stop-color:#9e2064;stop-opacity:1"/><stop offset="0.63" style="stop-color:#c92037;stop-opacity:1"/><stop offset="0.75" style="stop-color:#cd2335;stop-opacity:1"/><stop offset="1" style="stop-color:#e97826;stop-opacity:1"/></linearGradient></defs></svg>