<?xml version="1.0" encoding="UTF-8" standalone="no"?><!DOCTYPE svg PUBLIC "-//W3C//DTD SVG 1.1//EN" "http://www.w3.org/Graphics/SVG/1.1/DTD/svg11.dtd"><svg width="100%" height="100%" viewBox="0 0 949 718" version="1.1" xmlns="http://www.w3.org/2000/svg" xmlns:xlink="http://www.w3.org/1999/xlink" xml:space="preserve" xmlns:serif="http://www.serif.com/" style="fill-rule:evenodd;clip-rule:evenodd;stroke-linejoin:round;stroke-miterlimit:1.41421;"><rect id="Artboard1" x="0" y="0" width="948.798" height="717.165" style="fill:none;"/><g><g id="SvgjsG5967"><path d="M465.517,155.103c-247.414,0 -362.069,202.759 -362.069,202.759c0,0 114.655,202.759 362.069,202.759c247.414,0 362.069,-202.759 362.069,-202.759c0,0 -115.862,-202.759 -362.069,-202.759Zm1.811,380.776c-98.314,0 -178.018,-79.703 -178.018,-178.017c0,-98.314 79.704,-178.017 178.018,-178.017c98.313,0 178.017,79.703 178.017,178.017c0,98.314 -79.704,178.017 -178.017,178.017Z" style="fill:#fff;fill-rule:nonzero;"/><path d="M465.517,357.862l47.906,-96.375c-13.952,-6.686 -29.585,-10.435 -46.095,-10.435c-58.994,0 -106.811,47.817 -106.811,106.81c0,58.993 47.817,106.81 106.811,106.81c58.993,0 106.81,-47.817 106.81,-106.81c0,-5.696 -0.459,-11.28 -1.312,-16.728l-107.309,16.728Z" style="fill:#fff;fill-rule:nonzero;"/></g></g></svg>