
		<svg xmlns="http://www.w3.org/2000/svg" xmlns:xlink="http://www.w3.org/1999/xlink" version="1.1" width="320.896551724138" height="108.2068965517242">
			
			<g transform="scale(1) translate(10, 10)">
				<defs id="SvgjsDefs5965"></defs><g id="SvgjsG5966" featureKey="root" fill="#d9d9d8"></g><g id="SvgjsG5967" featureKey="symbol1" fill="#000000" transform="matrix(0.7777777777777778,0,0,0.7777777777777778,-3.888888888888889,8.711111704508465)"><path xmlns="http://www.w3.org/2000/svg" fill="#000000" d="M50,24.8C19.25,24.8,5,50,5,50s14.25,25.2,45,25.2S95,50,95,50S80.6,24.8,50,24.8z M50.225,72.125  C38.006,72.125,28.1,62.219,28.1,50s9.906-22.125,22.125-22.125S72.35,37.781,72.35,50S62.444,72.125,50.225,72.125z"></path><path xmlns="http://www.w3.org/2000/svg" fill="#000000" d="M50,50l5.954-11.978c-1.734-0.831-3.677-1.297-5.729-1.297c-7.332,0-13.275,5.943-13.275,13.275  c0,7.332,5.943,13.275,13.275,13.275S63.5,57.332,63.5,50c0-0.708-0.057-1.402-0.163-2.079L50,50z"></path></g><g id="SvgjsG5968" featureKey="text1" fill="#000000" transform="matrix(2.4300656413720665,0,0,2.4300656413720665,85.57728185367282,-13.911846281899724)"><path d="M6.9 9.84 q2.06 0 3.25 1.02 t1.19 2.94 q0 1.86 -1.18 2.91 t-3.26 1.05 l-3.16 0 l0 6.24 l-1.92 0 l0 -14.16 l5.08 0 z M6.34 16.08 q1.5 0 2.23 -0.55 t0.73 -1.73 q0 -2.28 -2.96 -2.28 l-2.6 0 l0 4.56 l2.6 0 z M17.02 14.28 q1.8 0 2.85 0.82 t1.11 2.28 l0 5.08 q0 0.72 0.08 1.54 l-1.6 0 q-0.06 -0.64 -0.06 -1.44 l-0.04 0 q-0.62 0.92 -1.43 1.3 t-1.89 0.38 q-1.46 0 -2.37 -0.78 t-0.91 -2.06 q0 -1.62 1.36 -2.45 t3.84 -0.83 l1.34 0 l0 -0.34 q0 -0.96 -0.63 -1.51 t-1.65 -0.55 q-0.76 0 -1.33 0.23 t-1.35 0.85 l-1.08 -1.12 q1.54 -1.36 3.76 -1.4 z M14.559999999999999 21.259999999999998 q0 1.54 2.04 1.54 q1.22 0 1.95 -0.73 t0.75 -2.11 l0 -0.52 l-1.02 0 q-1.76 0 -2.74 0.45 t-0.98 1.37 z M28.560000000000002 14.28 q1.6 0 2.51 0.96 t0.93 2.58 l0 6.18 l-1.8 0 l0 -5.66 q0 -1.1 -0.57 -1.74 t-1.59 -0.64 q-1.26 0 -1.95 0.84 t-0.69 2.24 l0 4.96 l-1.8 0 l0 -9.48 l1.8 0 l0 1.46 l0.04 0 q0.38 -0.8 1.23 -1.25 t1.89 -0.45 z M39.3 14.28 q2.1 0 3.56 1.45 t1.48 3.53 q0 2.1 -1.46 3.52 t-3.58 1.46 q-2.08 0 -3.54 -1.44 t-1.5 -3.54 q0 -2.06 1.45 -3.5 t3.59 -1.48 z M36.18 19.259999999999998 q0 1.46 0.86 2.37 t2.26 0.93 q1.42 0 2.26 -0.91 t0.86 -2.39 q0 -1.46 -0.84 -2.37 t-2.3 -0.93 q-1.42 0 -2.26 0.94 t-0.84 2.36 z M51.760000000000005 14.28 q2.1 0 3.43 1.38 t1.37 3.6 q0 2.22 -1.36 3.59 t-3.46 1.39 q-1.04 0 -1.94 -0.44 t-1.36 -1.16 l-0.04 0 l0 7 l-1.8 0 l0 -15.12 l1.8 0 l0 1.36 l0.04 0 q0.54 -0.76 1.42 -1.18 t1.9 -0.42 z M48.400000000000006 19.259999999999998 q0 1.48 0.87 2.39 t2.25 0.91 q1.44 0 2.27 -0.91 t0.85 -2.39 q0 -1.48 -0.85 -2.38 t-2.29 -0.92 q-1.42 0 -2.26 0.93 t-0.84 2.37 z M61.32 11.86 l0 2.66 l2.58 0 l0 1.56 l-2.58 0 l0 4.56 q0 0.92 0.26 1.42 t1.1 0.5 q0.8 0 1.28 -0.28 l0 1.64 q-0.52 0.28 -1.64 0.32 q-1.08 0 -1.67 -0.33 t-0.86 -0.92 t-0.27 -1.85 l0 -5.06 l-2.08 0 l0 -1.56 l2.08 0 l0 -2.66 l1.8 0 z M70.56 14.28 q2.18 0 3.39 1.37 t1.23 3.77 l0 0.5 l-7.6 0 q0 1.16 0.93 1.95 t2.27 0.81 q1.48 0 2.6 -1.42 l1.36 1.04 q-1.52 1.94 -4.2 1.94 q-2.18 0 -3.51 -1.39 t-1.37 -3.59 q0 -2.12 1.37 -3.53 t3.53 -1.45 z M73.26 18.48 q-0.04 -1.34 -0.76 -2.05 t-1.98 -0.71 q-0.84 0 -1.51 0.41 t-1.05 1.06 t-0.38 1.29 l5.68 0 z M80.54 14.28 q1.08 0 1.93 0.4 t1.31 1.16 l-1.4 1.06 q-0.8 -0.94 -1.94 -0.94 q-0.68 0 -1.13 0.3 t-0.45 0.76 q0 1 1.86 1.36 q1.82 0.34 2.57 1 t0.75 1.88 q0 1.38 -1.05 2.17 t-2.81 0.81 q-1.32 0 -2.17 -0.41 t-1.47 -1.27 l1.36 -1.12 q1.08 1.12 2.3 1.12 q0.8 0 1.36 -0.32 t0.56 -0.88 q0 -0.98 -1.8 -1.36 q-2 -0.4 -2.69 -1.07 t-0.69 -1.73 q0 -1.32 1.02 -2.11 t2.58 -0.81 z"></path></g><g id="SvgjsG5969" featureKey="text3" fill="#000000" transform="matrix(0.9444444444444444,0,0,0.9444444444444444,88.77222226725684,53.55555555555556)"><path d="M10.36 10 c0.2 0 0.3 0.1 0.3 0.3 l0 13.4 c0 0.2 -0.1 0.3 -0.3 0.3 l-1.76 0 c-0.16 0 -0.28 -0.06 -0.36 -0.22 l-5.2 -11.24 l0 11.16 c0 0.2 -0.1 0.3 -0.3 0.3 l-1.14 0 c-0.2 0 -0.3 -0.1 -0.3 -0.3 l0 -13.4 c0 -0.2 0.1 -0.3 0.3 -0.3 l1.76 0 c0.16 0 0.28 0.06 0.36 0.22 l5.2 11.22 l0 -11.14 c0 -0.2 0.1 -0.3 0.3 -0.3 l1.14 0 z M20.524 13.92 c1.82 0 3.44 1.34 3.44 3.62 l0 1.52 c0 0.38 -0.24 0.62 -0.64 0.62 l-5.48 0 l0 1.02 c0 1.2 0.68 1.84 1.86 1.84 l0.82 0 c1.24 0 1.56 -0.36 2.06 -0.96 c0.14 -0.16 0.24 -0.18 0.44 -0.04 l0.58 0.4 c0.2 0.14 0.2 0.26 0.08 0.42 c-0.72 0.88 -1.4 1.74 -3.16 1.74 l-0.82 0 c-2.18 0 -3.6 -1.5 -3.6 -3.68 l0 -2.86 c0 -2.26 1.42 -3.64 3.6 -3.64 l0.82 0 z M22.244 18.3 l0 -0.9 c0 -1.32 -0.72 -1.94 -1.72 -1.94 l-0.82 0 c-1.18 0 -1.86 0.62 -1.86 1.96 l0 0.88 l4.4 0 z M33.368 15.54 l-1.54 0 l0 5.4 c0 1.12 0.36 1.52 1.48 1.56 c0.24 0 0.34 0.16 0.32 0.38 l-0.02 0.82 c-0.02 0.22 -0.16 0.34 -0.4 0.34 c-2.38 -0.02 -3.08 -1.04 -3.08 -3.12 l0 -5.38 l-1.02 0 c-0.2 0 -0.3 -0.1 -0.3 -0.3 l0 -0.92 c0 -0.22 0.1 -0.32 0.3 -0.32 l1.02 0 l0 -1.22 c0 -0.2 0.1 -0.3 0.3 -0.3 l1.1 0 c0.2 0 0.3 0.1 0.3 0.3 l0 1.22 l1.52 0 c0.22 0 0.32 0.1 0.32 0.3 l0 0.94 c0 0.2 -0.12 0.3 -0.3 0.3 z  M51.732 14 c0.2 0 0.3 0.12 0.24 0.34 l-2.78 9.28 c-0.06 0.24 -0.24 0.38 -0.46 0.38 l-0.92 0 c-0.2 0 -0.38 -0.14 -0.46 -0.38 c-0.68 -2.24 -1.44 -4.58 -2.14 -7.14 c-0.7 2.56 -1.48 4.9 -2.18 7.14 c-0.08 0.24 -0.26 0.38 -0.46 0.38 l-0.92 0 c-0.22 0 -0.38 -0.14 -0.46 -0.38 l-2.76 -9.28 c-0.06 -0.22 0.04 -0.34 0.24 -0.34 l1.12 0 c0.2 0 0.3 0.12 0.36 0.34 c0.64 2.42 1.22 4.9 2 7.6 c0.78 -2.7 1.5 -5.18 2.14 -7.6 c0.06 -0.22 0.16 -0.34 0.36 -0.34 l1.06 0 c0.22 0 0.32 0.12 0.38 0.34 c0.64 2.42 1.36 4.9 2.14 7.6 c0.78 -2.7 1.38 -5.18 2.02 -7.6 c0.06 -0.22 0.16 -0.34 0.36 -0.34 l1.12 0 z M61.31600000000001 13.92 c2.18 0 3.54 1.38 3.54 3.64 l0 2.92 c0 2.22 -1.36 3.62 -3.54 3.62 l-0.94 0 c-2.16 0 -3.54 -1.4 -3.54 -3.62 l0 -2.92 c0 -2.26 1.38 -3.64 3.54 -3.64 l0.94 0 z M63.17600000000001 20.64 l0 -3.24 c0 -1.32 -0.7 -1.94 -1.86 -1.94 l-0.94 0 c-1.16 0 -1.84 0.62 -1.84 1.94 l0 3.24 c0 1.26 0.68 1.9 1.84 1.9 l0.94 0 c1.16 0 1.86 -0.64 1.86 -1.9 z M76 15.46 c-0.08 0.18 -0.24 0.22 -0.44 0.16 c-0.3 -0.1 -0.64 -0.16 -1.04 -0.16 l-0.24 0 c-1.32 0 -2.12 0.74 -2.38 1.2 l0 7.04 c0 0.2 -0.1 0.3 -0.3 0.3 l-1.1 0 c-0.2 0 -0.3 -0.1 -0.3 -0.3 l0 -9.4 c0 -0.2 0.1 -0.3 0.3 -0.3 l1.1 0 c0.2 0 0.3 0.1 0.3 0.3 l0 1.1 c0.64 -1 1.7 -1.48 3 -1.48 c0.52 0 0.98 0.08 1.38 0.24 c0.2 0.1 0.24 0.24 0.14 0.46 z M81.624 10 l1.1 0 c0.2 0 0.3 0.1 0.3 0.3 l0 7.98 l4 -4.06 c0.12 -0.14 0.24 -0.22 0.4 -0.22 l1.26 0 c0.26 0 0.38 0.28 0.14 0.52 l-3.68 3.74 l4.18 5.28 c0.16 0.2 0.08 0.46 -0.2 0.46 l-1.1 0 c-0.22 0 -0.38 -0.06 -0.54 -0.3 l-3.48 -4.32 l-0.98 0.98 l0 3.34 c0 0.2 -0.1 0.3 -0.3 0.3 l-1.1 0 c-0.2 0 -0.3 -0.1 -0.3 -0.3 l0 -13.4 c0 -0.2 0.1 -0.3 0.3 -0.3 z  M111.77199999999999 10 c0.2 0 0.3 0.1 0.3 0.3 l0 0.98 c0 0.2 -0.1 0.3 -0.3 0.3 l-3.16 0 l0 12.12 c0 0.2 -0.1 0.3 -0.3 0.3 l-1.14 0 c-0.2 0 -0.3 -0.1 -0.3 -0.3 l0 -12.12 l-3.18 0 c-0.2 0 -0.3 -0.1 -0.3 -0.3 l0 -0.98 c0 -0.2 0.1 -0.3 0.3 -0.3 l4.62 0 l3.46 0 z M121.436 13.92 c1.82 0 3.44 1.34 3.44 3.62 l0 1.52 c0 0.38 -0.24 0.62 -0.64 0.62 l-5.48 0 l0 1.02 c0 1.2 0.68 1.84 1.86 1.84 l0.82 0 c1.24 0 1.56 -0.36 2.06 -0.96 c0.14 -0.16 0.24 -0.18 0.44 -0.04 l0.58 0.4 c0.2 0.14 0.2 0.26 0.08 0.42 c-0.72 0.88 -1.4 1.74 -3.16 1.74 l-0.82 0 c-2.18 0 -3.6 -1.5 -3.6 -3.68 l0 -2.86 c0 -2.26 1.42 -3.64 3.6 -3.64 l0.82 0 z M123.156 18.3 l0 -0.9 c0 -1.32 -0.72 -1.94 -1.72 -1.94 l-0.82 0 c-1.18 0 -1.86 0.62 -1.86 1.96 l0 0.88 l4.4 0 z M130.22 10.3 c0 -0.2 0.1 -0.3 0.3 -0.3 l1.1 0 c0.2 0 0.3 0.1 0.3 0.3 l0 13.4 c0 0.2 -0.1 0.3 -0.3 0.3 l-1.1 0 c-0.2 0 -0.3 -0.1 -0.3 -0.3 l0 -13.4 z M141.684 13.92 c1.82 0 3.44 1.34 3.44 3.62 l0 1.52 c0 0.38 -0.24 0.62 -0.64 0.62 l-5.48 0 l0 1.02 c0 1.2 0.68 1.84 1.86 1.84 l0.82 0 c1.24 0 1.56 -0.36 2.06 -0.96 c0.14 -0.16 0.24 -0.18 0.44 -0.04 l0.58 0.4 c0.2 0.14 0.2 0.26 0.08 0.42 c-0.72 0.88 -1.4 1.74 -3.16 1.74 l-0.82 0 c-2.18 0 -3.6 -1.5 -3.6 -3.68 l0 -2.86 c0 -2.26 1.42 -3.64 3.6 -3.64 l0.82 0 z M143.404 18.3 l0 -0.9 c0 -1.32 -0.72 -1.94 -1.72 -1.94 l-0.82 0 c-1.18 0 -1.86 0.62 -1.86 1.96 l0 0.88 l4.4 0 z M161.228 13.92 c2.28 0 3.06 1.32 3.06 3.54 l0 6.24 c0 0.2 -0.1 0.3 -0.3 0.3 l-1.1 0 c-0.2 0 -0.3 -0.1 -0.3 -0.3 l0 -6.34 c0 -1.28 -0.44 -1.9 -1.68 -1.9 l-0.3 0 c-1.32 0 -2.12 0.74 -2.38 1.2 l0 7.04 c0 0.2 -0.1 0.3 -0.3 0.3 l-1.1 0 c-0.2 0 -0.3 -0.1 -0.3 -0.3 l0 -6.34 c0 -1.28 -0.44 -1.9 -1.68 -1.9 l-0.3 0 c-1.32 0 -2.12 0.74 -2.38 1.2 l0 7.04 c0 0.2 -0.1 0.3 -0.3 0.3 l-1.1 0 c-0.2 0 -0.3 -0.1 -0.3 -0.3 l0 -9.4 c0 -0.2 0.1 -0.3 0.3 -0.3 l1.1 0 c0.2 0 0.3 0.1 0.3 0.3 l0 1.1 c0.56 -0.86 1.52 -1.48 2.84 -1.48 l0.16 0 c1.56 0 2.42 0.64 2.8 1.76 l0.26 -0.28 c0.56 -0.86 1.52 -1.48 2.84 -1.48 l0.16 0 z M174.052 13.92 c1.82 0 3.44 1.34 3.44 3.62 l0 1.52 c0 0.38 -0.24 0.62 -0.64 0.62 l-5.48 0 l0 1.02 c0 1.2 0.68 1.84 1.86 1.84 l0.82 0 c1.24 0 1.56 -0.36 2.06 -0.96 c0.14 -0.16 0.24 -0.18 0.44 -0.04 l0.58 0.4 c0.2 0.14 0.2 0.26 0.08 0.42 c-0.72 0.88 -1.4 1.74 -3.16 1.74 l-0.82 0 c-2.18 0 -3.6 -1.5 -3.6 -3.68 l0 -2.86 c0 -2.26 1.42 -3.64 3.6 -3.64 l0.82 0 z M175.772 18.3 l0 -0.9 c0 -1.32 -0.72 -1.94 -1.72 -1.94 l-0.82 0 c-1.18 0 -1.86 0.62 -1.86 1.96 l0 0.88 l4.4 0 z M186.896 15.54 l-1.54 0 l0 5.4 c0 1.12 0.36 1.52 1.48 1.56 c0.24 0 0.34 0.16 0.32 0.38 l-0.02 0.82 c-0.02 0.22 -0.16 0.34 -0.4 0.34 c-2.38 -0.02 -3.08 -1.04 -3.08 -3.12 l0 -5.38 l-1.02 0 c-0.2 0 -0.3 -0.1 -0.3 -0.3 l0 -0.92 c0 -0.22 0.1 -0.32 0.3 -0.32 l1.02 0 l0 -1.22 c0 -0.2 0.1 -0.3 0.3 -0.3 l1.1 0 c0.2 0 0.3 0.1 0.3 0.3 l0 1.22 l1.52 0 c0.22 0 0.32 0.1 0.32 0.3 l0 0.94 c0 0.2 -0.12 0.3 -0.3 0.3 z  M198.24 15.46 c-0.08 0.18 -0.24 0.22 -0.44 0.16 c-0.3 -0.1 -0.64 -0.16 -1.04 -0.16 l-0.24 0 c-1.32 0 -2.12 0.74 -2.38 1.2 l0 7.04 c0 0.2 -0.1 0.3 -0.3 0.3 l-1.1 0 c-0.2 0 -0.3 -0.1 -0.3 -0.3 l0 -9.4 c0 -0.2 0.1 -0.3 0.3 -0.3 l1.1 0 c0.2 0 0.3 0.1 0.3 0.3 l0 1.1 c0.64 -1 1.7 -1.48 3 -1.48 c0.52 0 0.98 0.08 1.38 0.24 c0.2 0.1 0.24 0.24 0.14 0.46 z M211.684 14 c0.22 0 0.24 0.16 0.16 0.34 l-5.28 13.32 c-0.12 0.28 -0.28 0.34 -0.44 0.34 l-1.08 0 c-0.24 0 -0.28 -0.16 -0.2 -0.36 l1.66 -4.18 l-3.62 -9.12 c-0.06 -0.18 -0.04 -0.34 0.18 -0.34 l1.18 0 c0.16 0 0.26 0.08 0.36 0.32 l2.74 7.04 l2.8 -7.04 c0.1 -0.24 0.18 -0.32 0.36 -0.32 l1.18 0 z"></path></g>
			</g>
		</svg>
