<?xml version="1.0" encoding="UTF-8" standalone="no"?><!DOCTYPE svg PUBLIC "-//W3C//DTD SVG 1.1//EN" "http://www.w3.org/Graphics/SVG/1.1/DTD/svg11.dtd"><svg width="100%" height="100%" viewBox="0 0 321 109" version="1.1" xmlns="http://www.w3.org/2000/svg" xmlns:xlink="http://www.w3.org/1999/xlink" xml:space="preserve" xmlns:serif="http://www.serif.com/" style="fill-rule:evenodd;clip-rule:evenodd;stroke-linejoin:round;stroke-miterlimit:1.41421;"><g><g id="SvgjsG5967"><path d="M45,38c-23.917,0 -35,19.6 -35,19.6c0,0 11.083,19.6 35,19.6c23.917,0 35,-19.6 35,-19.6c0,0 -11.2,-19.6 -35,-19.6Zm0.175,36.808c-9.504,0 -17.208,-7.704 -17.208,-17.208c0,-9.504 7.704,-17.208 17.208,-17.208c9.504,0 17.208,7.704 17.208,17.208c0,9.504 -7.704,17.208 -17.208,17.208Z" style="fill:#fff;fill-rule:nonzero;"/><path d="M45,57.6l4.631,-9.316c-1.349,-0.647 -2.86,-1.009 -4.456,-1.009c-5.703,0 -10.325,4.622 -10.325,10.325c0,5.703 4.622,10.325 10.325,10.325c5.703,0 10.325,-4.622 10.325,-10.325c0,-0.551 -0.044,-1.09 -0.127,-1.617l-10.373,1.617Z" style="fill:#fff;fill-rule:nonzero;"/></g><path id="SvgjsG5968" d="M112.345,20c3.337,0 5.97,0.826 7.897,2.479c1.928,1.652 2.892,4.034 2.892,7.144c0,3.013 -0.956,5.371 -2.867,7.072c-1.912,1.701 -4.553,2.551 -7.922,2.551l-7.679,0l0,15.164l-4.666,0l0,-34.41l12.345,0Zm-1.361,15.164c2.43,0 4.236,-0.446 5.419,-1.337c1.183,-0.891 1.774,-2.292 1.774,-4.204c0,-3.694 -2.398,-5.54 -7.193,-5.54l-6.318,0l0,11.081l6.318,0Zm25.953,-4.375c2.916,0 5.225,0.665 6.926,1.993c1.701,1.329 2.6,3.175 2.697,5.541l0,12.344c0,1.167 0.065,2.414 0.194,3.743l-3.888,0c-0.097,-1.037 -0.145,-2.204 -0.145,-3.5l-0.098,0c-1.004,1.491 -2.162,2.544 -3.475,3.16c-1.312,0.615 -2.843,0.923 -4.592,0.923c-2.366,0 -4.285,-0.632 -5.76,-1.896c-1.474,-1.263 -2.211,-2.932 -2.211,-5.005c0,-2.625 1.102,-4.609 3.305,-5.954c2.203,-1.345 5.314,-2.017 9.331,-2.017l3.257,0l0,-0.826c0,-1.556 -0.511,-2.779 -1.531,-3.67c-1.021,-0.891 -2.358,-1.336 -4.01,-1.336c-1.231,0 -2.309,0.186 -3.232,0.559c-0.923,0.372 -2.017,1.061 -3.281,2.065l-2.624,-2.721c2.495,-2.204 5.541,-3.338 9.137,-3.403Zm-5.978,16.962c0,2.495 1.652,3.743 4.957,3.743c1.977,0 3.556,-0.592 4.739,-1.774c1.183,-1.183 1.79,-2.892 1.823,-5.128l0,-1.263l-2.479,0c-2.851,0 -5.071,0.364 -6.658,1.093c-1.588,0.729 -2.382,1.839 -2.382,3.329Zm34.021,-16.962c2.592,0 4.625,0.778 6.099,2.333c1.475,1.556 2.228,3.645 2.26,6.27l0,15.018l-4.374,0l0,-13.754c0,-1.782 -0.461,-3.192 -1.385,-4.229c-0.923,-1.037 -2.211,-1.555 -3.864,-1.555c-2.041,0 -3.62,0.68 -4.738,2.041c-1.118,1.361 -1.677,3.176 -1.677,5.444l0,12.053l-4.374,0l0,-23.037l4.374,0l0,3.548l0.097,0c0.616,-1.296 1.612,-2.309 2.989,-3.038c1.377,-0.729 2.908,-1.094 4.593,-1.094Zm26.099,0c3.402,0 6.286,1.175 8.651,3.524c2.365,2.349 3.564,5.209 3.596,8.578c0,3.402 -1.182,6.254 -3.548,8.554c-2.365,2.301 -5.265,3.483 -8.699,3.548c-3.37,0 -6.237,-1.166 -8.603,-3.499c-2.365,-2.333 -3.58,-5.201 -3.645,-8.603c0,-3.337 1.175,-6.172 3.524,-8.505c2.349,-2.333 5.257,-3.532 8.724,-3.597Zm-7.582,12.102c0,2.365 0.697,4.285 2.09,5.759c1.393,1.475 3.224,2.228 5.492,2.26c2.3,0 4.131,-0.737 5.492,-2.211c1.361,-1.474 2.057,-3.41 2.09,-5.808c0,-2.365 -0.681,-4.285 -2.042,-5.759c-1.36,-1.474 -3.223,-2.228 -5.589,-2.26c-2.3,0 -4.131,0.761 -5.492,2.284c-1.361,1.523 -2.041,3.435 -2.041,5.735Zm37.86,-12.102c3.403,0 6.181,1.118 8.336,3.354c2.154,2.236 3.264,5.152 3.329,8.748c0,3.597 -1.102,6.505 -3.305,8.724c-2.203,2.22 -5.006,3.346 -8.408,3.378c-1.685,0 -3.256,-0.356 -4.714,-1.069c-1.458,-0.713 -2.56,-1.653 -3.305,-2.819l-0.098,0l0,17.01l-4.374,0l0,-36.742l4.374,0l0,3.305l0.098,0c0.874,-1.232 2.025,-2.187 3.45,-2.868c1.426,-0.68 2.965,-1.021 4.617,-1.021Zm-8.165,12.102c0,2.398 0.705,4.334 2.115,5.808c1.409,1.474 3.232,2.211 5.467,2.211c2.333,0 4.172,-0.737 5.517,-2.211c1.344,-1.474 2.033,-3.41 2.065,-5.808c0,-2.397 -0.688,-4.325 -2.065,-5.783c-1.378,-1.458 -3.232,-2.204 -5.565,-2.236c-2.301,0 -4.131,0.753 -5.492,2.26c-1.361,1.507 -2.042,3.426 -2.042,5.759Zm31.397,-17.982l0,6.464l6.269,0l0,3.791l-6.269,0l0,11.081c0,1.49 0.211,2.64 0.632,3.45c0.421,0.81 1.312,1.215 2.673,1.215c1.296,0 2.333,-0.226 3.11,-0.68l0,3.985c-0.842,0.454 -2.171,0.713 -3.985,0.778c-1.75,0 -3.102,-0.267 -4.058,-0.802c-0.956,-0.535 -1.653,-1.28 -2.09,-2.236c-0.438,-0.955 -0.656,-2.454 -0.656,-4.495l0,-12.296l-5.055,0l0,-3.791l5.055,0l0,-6.464l4.374,0Zm22.454,5.88c3.531,0 6.277,1.11 8.238,3.33c1.96,2.219 2.956,5.273 2.989,9.161l0,1.215l-18.469,0c0,1.879 0.753,3.459 2.26,4.739c1.507,1.28 3.345,1.936 5.516,1.968c2.398,0 4.504,-1.15 6.318,-3.451l3.305,2.528c-2.462,3.143 -5.864,4.714 -10.206,4.714c-3.532,0 -6.375,-1.126 -8.529,-3.378c-2.155,-2.252 -3.265,-5.16 -3.33,-8.724c0,-3.434 1.11,-6.294 3.33,-8.578c2.219,-2.284 5.078,-3.459 8.578,-3.524Zm6.561,10.207c-0.065,-2.171 -0.681,-3.832 -1.847,-4.982c-1.166,-1.15 -2.77,-1.725 -4.811,-1.725c-1.361,0 -2.584,0.332 -3.67,0.996c-1.085,0.664 -1.936,1.523 -2.551,2.576c-0.616,1.053 -0.924,2.098 -0.924,3.135l13.803,0Zm17.691,-10.207c1.749,0 3.313,0.324 4.69,0.973c1.377,0.648 2.438,1.587 3.183,2.818l-3.402,2.576c-1.296,-1.523 -2.867,-2.284 -4.714,-2.284c-1.102,0 -2.017,0.243 -2.746,0.729c-0.729,0.486 -1.094,1.102 -1.094,1.847c0,1.62 1.507,2.722 4.52,3.305c2.949,0.551 5.03,1.361 6.245,2.43c1.215,1.069 1.823,2.592 1.823,4.568c0,2.236 -0.851,3.994 -2.552,5.274c-1.701,1.279 -3.977,1.936 -6.828,1.968c-2.139,0 -3.896,-0.332 -5.273,-0.996c-1.377,-0.665 -2.568,-1.693 -3.572,-3.087l3.304,-2.721c1.75,1.814 3.613,2.721 5.59,2.721c1.296,0 2.397,-0.259 3.304,-0.777c0.908,-0.519 1.361,-1.231 1.361,-2.139c0,-1.587 -1.458,-2.689 -4.374,-3.305c-3.24,-0.648 -5.419,-1.514 -6.537,-2.6c-1.118,-1.085 -1.676,-2.486 -1.676,-4.204c0,-2.138 0.826,-3.847 2.478,-5.127c1.653,-1.28 3.743,-1.936 6.27,-1.969Z" style="fill:#fff;fill-rule:nonzero;"/><path id="SvgjsG5969" d="M108.557,73c0.189,0 0.283,0.094 0.283,0.283l0,12.656c0,0.189 -0.094,0.283 -0.283,0.283l-1.663,0c-0.151,0 -0.264,-0.056 -0.34,-0.208l-4.911,-10.615l0,10.54c0,0.189 -0.094,0.283 -0.283,0.283l-1.077,0c-0.189,0 -0.283,-0.094 -0.283,-0.283l0,-12.656c0,-0.189 0.094,-0.283 0.283,-0.283l1.663,0c0.151,0 0.264,0.057 0.34,0.208l4.911,10.596l0,-10.521c0,-0.189 0.094,-0.283 0.283,-0.283l1.077,0Zm9.599,3.702c1.719,0 3.249,1.266 3.249,3.419l0,1.436c0,0.359 -0.227,0.585 -0.605,0.585l-5.175,0l0,0.964c0,1.133 0.642,1.737 1.757,1.737l0.774,0c1.171,0 1.473,-0.34 1.946,-0.906c0.132,-0.151 0.226,-0.17 0.415,-0.038l0.548,0.378c0.189,0.132 0.189,0.245 0.075,0.396c-0.68,0.831 -1.322,1.644 -2.984,1.644l-0.774,0c-2.059,0 -3.4,-1.417 -3.4,-3.476l0,-2.701c0,-2.134 1.341,-3.438 3.4,-3.438l0.774,0Zm1.624,4.137l0,-0.85c0,-1.247 -0.68,-1.832 -1.624,-1.832l-0.774,0c-1.115,0 -1.757,0.585 -1.757,1.851l0,0.831l4.155,0Zm10.506,-2.607l-1.454,0l0,5.1c0,1.058 0.34,1.436 1.398,1.474c0.226,0 0.321,0.151 0.302,0.358l-0.019,0.775c-0.019,0.208 -0.151,0.321 -0.378,0.321c-2.247,-0.019 -2.909,-0.982 -2.909,-2.947l0,-5.081l-0.963,0c-0.189,0 -0.283,-0.094 -0.283,-0.283l0,-0.869c0,-0.208 0.094,-0.302 0.283,-0.302l0.963,0l0,-1.152c0,-0.189 0.095,-0.284 0.284,-0.284l1.039,0c0.189,0 0.283,0.095 0.283,0.284l0,1.152l1.436,0c0.207,0 0.302,0.094 0.302,0.283l0,0.888c0,0.189 -0.114,0.283 -0.284,0.283Zm17.344,-1.454c0.189,0 0.284,0.113 0.227,0.321l-2.626,8.764c-0.056,0.227 -0.226,0.359 -0.434,0.359l-0.869,0c-0.189,0 -0.359,-0.132 -0.434,-0.359c-0.643,-2.115 -1.36,-4.325 -2.022,-6.743c-0.661,2.418 -1.397,4.628 -2.058,6.743c-0.076,0.227 -0.246,0.359 -0.435,0.359l-0.869,0c-0.208,0 -0.359,-0.132 -0.434,-0.359l-2.607,-8.764c-0.057,-0.208 0.038,-0.321 0.227,-0.321l1.058,0c0.188,0 0.283,0.113 0.34,0.321c0.604,2.285 1.152,4.628 1.888,7.178c0.737,-2.55 1.417,-4.893 2.022,-7.178c0.056,-0.208 0.151,-0.321 0.34,-0.321l1.001,0c0.207,0 0.302,0.113 0.359,0.321c0.604,2.285 1.284,4.628 2.021,7.178c0.736,-2.55 1.303,-4.893 1.907,-7.178c0.057,-0.208 0.152,-0.321 0.34,-0.321l1.058,0Zm9.052,-0.076c2.059,0 3.343,1.304 3.343,3.438l0,2.758c0,2.096 -1.284,3.419 -3.343,3.419l-0.888,0c-2.04,0 -3.343,-1.323 -3.343,-3.419l0,-2.758c0,-2.134 1.303,-3.438 3.343,-3.438l0.888,0Zm1.756,6.347l0,-3.06c0,-1.247 -0.661,-1.832 -1.756,-1.832l-0.888,0c-1.096,0 -1.738,0.585 -1.738,1.832l0,3.06c0,1.19 0.642,1.794 1.738,1.794l0.888,0c1.095,0 1.756,-0.604 1.756,-1.794Zm12.112,-4.892c-0.076,0.17 -0.227,0.207 -0.416,0.151c-0.283,-0.095 -0.604,-0.151 -0.982,-0.151l-0.226,0c-1.247,0 -2.003,0.699 -2.248,1.133l0,6.649c0,0.189 -0.095,0.283 -0.284,0.283l-1.038,0c-0.189,0 -0.284,-0.094 -0.284,-0.283l0,-8.878c0,-0.189 0.095,-0.283 0.284,-0.283l1.038,0c0.189,0 0.284,0.094 0.284,0.283l0,1.039c0.604,-0.944 1.605,-1.398 2.833,-1.398c0.491,0 0.926,0.076 1.303,0.227c0.189,0.094 0.227,0.227 0.133,0.434l-0.397,0.794Zm5.312,-5.157l1.038,0c0.189,0 0.284,0.094 0.284,0.283l0,7.537l3.778,-3.834c0.113,-0.133 0.226,-0.208 0.377,-0.208l1.19,0c0.246,0 0.359,0.264 0.133,0.491l-3.476,3.532l3.948,4.987c0.151,0.189 0.075,0.434 -0.189,0.434l-1.039,0c-0.208,0 -0.359,-0.056 -0.51,-0.283l-3.287,-4.08l-0.925,0.925l0,3.155c0,0.189 -0.095,0.283 -0.284,0.283l-1.038,0c-0.189,0 -0.284,-0.094 -0.284,-0.283l0,-12.656c0,-0.189 0.095,-0.283 0.284,-0.283Zm28.473,0c0.189,0 0.283,0.094 0.283,0.283l0,0.926c0,0.189 -0.094,0.283 -0.283,0.283l-2.985,0l0,11.447c0,0.189 -0.094,0.283 -0.283,0.283l-1.077,0c-0.189,0 -0.283,-0.094 -0.283,-0.283l0,-11.447l-3.003,0c-0.189,0 -0.284,-0.094 -0.284,-0.283l0,-0.926c0,-0.189 0.095,-0.283 0.284,-0.283l7.631,0Zm9.127,3.702c1.719,0 3.249,1.266 3.249,3.419l0,1.436c0,0.359 -0.227,0.585 -0.605,0.585l-5.175,0l0,0.964c0,1.133 0.642,1.737 1.756,1.737l0.775,0c1.171,0 1.473,-0.34 1.945,-0.906c0.133,-0.151 0.227,-0.17 0.416,-0.038l0.548,0.378c0.189,0.132 0.189,0.245 0.075,0.396c-0.68,0.831 -1.322,1.644 -2.984,1.644l-0.775,0c-2.059,0 -3.4,-1.417 -3.4,-3.476l0,-2.701c0,-2.134 1.341,-3.438 3.4,-3.438l0.775,0Zm1.624,4.137l0,-0.85c0,-1.247 -0.68,-1.832 -1.624,-1.832l-0.775,0c-1.114,0 -1.756,0.585 -1.756,1.851l0,0.831l4.155,0Zm6.672,-7.556c0,-0.189 0.094,-0.283 0.283,-0.283l1.039,0c0.189,0 0.283,0.094 0.283,0.283l0,12.656c0,0.189 -0.094,0.283 -0.283,0.283l-1.039,0c-0.189,0 -0.283,-0.094 -0.283,-0.283l0,-12.656Zm10.827,3.419c1.719,0 3.249,1.266 3.249,3.419l0,1.436c0,0.359 -0.227,0.585 -0.605,0.585l-5.175,0l0,0.964c0,1.133 0.642,1.737 1.756,1.737l0.775,0c1.171,0 1.473,-0.34 1.945,-0.906c0.133,-0.151 0.227,-0.17 0.416,-0.038l0.548,0.378c0.189,0.132 0.189,0.245 0.075,0.396c-0.68,0.831 -1.322,1.644 -2.984,1.644l-0.775,0c-2.058,0 -3.4,-1.417 -3.4,-3.476l0,-2.701c0,-2.134 1.342,-3.438 3.4,-3.438l0.775,0Zm1.624,4.137l0,-0.85c0,-1.247 -0.68,-1.832 -1.624,-1.832l-0.775,0c-1.114,0 -1.756,0.585 -1.756,1.851l0,0.831l4.155,0Zm16.834,-4.137c2.153,0 2.89,1.247 2.89,3.344l0,5.893c0,0.189 -0.094,0.283 -0.283,0.283l-1.039,0c-0.189,0 -0.283,-0.094 -0.283,-0.283l0,-5.988c0,-1.209 -0.416,-1.794 -1.587,-1.794l-0.283,0c-1.247,0 -2.003,0.699 -2.248,1.133l0,6.649c0,0.189 -0.095,0.283 -0.284,0.283l-1.038,0c-0.189,0 -0.284,-0.094 -0.284,-0.283l0,-5.988c0,-1.209 -0.415,-1.794 -1.586,-1.794l-0.284,0c-1.246,0 -2.002,0.699 -2.248,1.133l0,6.649c0,0.189 -0.094,0.283 -0.283,0.283l-1.039,0c-0.189,0 -0.283,-0.094 -0.283,-0.283l0,-8.878c0,-0.189 0.094,-0.283 0.283,-0.283l1.039,0c0.189,0 0.283,0.094 0.283,0.283l0,1.039c0.529,-0.812 1.436,-1.398 2.683,-1.398l0.151,0c1.473,0 2.285,0.605 2.644,1.662l0.246,-0.264c0.529,-0.812 1.435,-1.398 2.682,-1.398l0.151,0Zm12.112,0c1.719,0 3.249,1.266 3.249,3.419l0,1.436c0,0.359 -0.227,0.585 -0.605,0.585l-5.175,0l0,0.964c0,1.133 0.642,1.737 1.756,1.737l0.775,0c1.171,0 1.473,-0.34 1.945,-0.906c0.132,-0.151 0.227,-0.17 0.416,-0.038l0.548,0.378c0.188,0.132 0.188,0.245 0.075,0.396c-0.68,0.831 -1.322,1.644 -2.984,1.644l-0.775,0c-2.059,0 -3.4,-1.417 -3.4,-3.476l0,-2.701c0,-2.134 1.341,-3.438 3.4,-3.438l0.775,0Zm1.624,4.137l0,-0.85c0,-1.247 -0.68,-1.832 -1.624,-1.832l-0.775,0c-1.114,0 -1.756,0.585 -1.756,1.851l0,0.831l4.155,0Zm10.506,-2.607l-1.454,0l0,5.1c0,1.058 0.34,1.436 1.397,1.474c0.227,0 0.322,0.151 0.303,0.358l-0.019,0.775c-0.019,0.208 -0.151,0.321 -0.378,0.321c-2.248,-0.019 -2.909,-0.982 -2.909,-2.947l0,-5.081l-0.963,0c-0.189,0 -0.284,-0.094 -0.284,-0.283l0,-0.869c0,-0.208 0.095,-0.302 0.284,-0.302l0.963,0l0,-1.152c0,-0.189 0.095,-0.284 0.283,-0.284l1.039,0c0.189,0 0.284,0.095 0.284,0.284l0,1.152l1.435,0c0.208,0 0.302,0.094 0.302,0.283l0,0.888c0,0.189 -0.113,0.283 -0.283,0.283Zm10.714,-0.075c-0.076,0.17 -0.227,0.207 -0.416,0.151c-0.283,-0.095 -0.604,-0.151 -0.982,-0.151l-0.227,0c-1.246,0 -2.002,0.699 -2.247,1.133l0,6.649c0,0.189 -0.095,0.283 -0.284,0.283l-1.039,0c-0.188,0 -0.283,-0.094 -0.283,-0.283l0,-8.878c0,-0.189 0.095,-0.283 0.283,-0.283l1.039,0c0.189,0 0.284,0.094 0.284,0.283l0,1.039c0.604,-0.944 1.605,-1.398 2.833,-1.398c0.491,0 0.926,0.076 1.303,0.227c0.189,0.094 0.227,0.227 0.133,0.434l-0.397,0.794Zm12.697,-1.379c0.208,0 0.227,0.151 0.151,0.321l-4.987,12.58c-0.113,0.264 -0.264,0.321 -0.415,0.321l-1.02,0c-0.227,0 -0.265,-0.151 -0.189,-0.34l1.568,-3.948l-3.419,-8.613c-0.057,-0.17 -0.038,-0.321 0.17,-0.321l1.114,0c0.151,0 0.246,0.075 0.34,0.302l2.588,6.649l2.645,-6.649c0.094,-0.227 0.17,-0.302 0.34,-0.302l1.114,0Z" style="fill:#fff;fill-rule:nonzero;"/></g></svg>