<svg version="1" xmlns="http://www.w3.org/2000/svg" width="1265.333" height="1265.333" viewBox="0 0 949.000000 949.000000"><path d="M441.8 270.6c-.2.1-3.8.4-8.1.6-4.2.2-7.7.5-7.7.8 0 .3-1.9.5-4.3.6-6.4.1-14.4 1.1-30.7 4-4.7.8-9.8 1.7-11.5 2-1.6.3-4.8 1-7 1.6-2.2.5-5.1 1.2-6.5 1.5-1.4.2-4.8 1.1-7.6 1.9-2.8.8-6 1.6-7 1.9-1.1.2-3.8 1-6.1 1.9-2.4.8-4.3 1.3-4.3.9 0-.3-.7 0-1.5.7s-1.5.9-1.5.5-.7-.2-1.5.5-1.5.9-1.5.4c0-.4-.5-.3-1.2.4s-1.9 1.2-2.8 1.2c-1.4 0-13.3 4.4-20.7 7.6-1.7.8-3.5 1.4-3.9 1.4-3.6 0-62.7 30.6-65.4 33.9-.3.3-5.6 3.9-11.7 8-6.2 4.1-11.3 7.8-11.3 8.2 0 .5-.5.9-1 .9-.6 0-1.6.5-2.3 1-.7.6-4.1 3.3-7.7 6.1-9.1 7.1-15.1 12-17.8 14.6-1.3 1.3-2.5 2.3-2.7 2.3-.5 0-13.5 12.2-22.9 21.6-9.5 9.5-21.5 22.7-28.8 31.6-1.8 2.3-3.8 4.6-4.3 5.2-2.3 2.4-15.6 20.7-20.9 28.8-6.7 10-6.7 9.7.8 20.5 2.8 4.1 5.6 8.2 6.1 9.1.6.9 1.2 1.9 1.5 2.2.3.3 1.7 2.1 3 4s2.7 3.7 3 4c.3.3 2.1 2.5 4 5s3.7 4.7 4 5c.3.3 2.5 3 5 6 8.1 9.9 11.3 13.3 28.5 30.5 15.5 15.5 21.2 20.7 31.5 29.1 1.9 1.6 3.7 3.1 4 3.4.3.3 5 3.9 10.5 8s10.5 7.9 11 8.3c.6.5 5.7 4 11.5 7.7 5.8 3.8 11 7.3 11.5 7.7.6.4 2.8 1.7 5 2.8 2.2 1.1 4.2 2.3 4.5 2.6.8.9 12.8 7.3 24.5 13.2 10.3 5.2 12.9 6.4 24.7 11.5 2.5 1.1 4.9 1.8 5.2 1.4.3-.3.6-.1.6.4 0 .6 8.7 3.9 19.3 7.3 10.5 3.5 20 6.8 20.9 7.2 1 .5 2.8.9 4.1.9 1.3 0 2.7.3 3.1.7.3.4 1.3.8 2.1.9.7.1 5.5 1.1 10.7 2.3 9.8 2.2 10.5 2.3 23.3 4.5 24.4 4.3 43.5 5.9 71.5 6 15.4 0 37.4-.9 43.1-1.9 1.3-.2 4.7-.6 7.4-.9 2.8-.3 7.5-.8 10.5-1.2 3-.5 6.5-.8 7.8-.8 1.2-.1 2.2-.3 2.2-.6s1.4-.7 3-.8c1.7-.1 6.3-.9 10.3-1.8 7.1-1.5 9.3-2 13.2-2.8 1.1-.2 4.9-1.2 8.5-2.1 3.6-.9 7-1.8 7.5-1.9 2.5-.5 25.3-7.9 28-9.1 1.7-.7 4.8-1.8 7-2.5s6.4-2.3 9.3-3.6c2.9-1.3 5.5-2.4 5.7-2.4.7 0 12.8-5.6 22.5-10.3 14-6.9 43.3-24 46.8-27.4.7-.7 1.7-1.3 2.1-1.3.6 0 7.8-5 12.6-8.7.6-.4 2.8-2.1 5-3.7 4.8-3.5 22.6-17.8 27.5-22.1 1.9-1.6 11.6-11.1 21.5-21 18.4-18.4 26.3-27.3 39.9-45 4.2-5.5 8.1-10.5 8.6-11.2.6-.7 1-1.6 1-2.2 0-.5.4-1.1.9-1.3 1.2-.4 10.1-14.4 10.1-15.9 0-.7-1.5-3.5-3.2-6.3-3.1-4.9-18.6-26.6-19.8-27.6-.3-.3-3.7-4.3-7.5-9-10.2-12.6-11.5-13.9-30-32.5-15.1-15.1-19.6-19.3-29.5-27.6-1.4-1.1-3.6-3-5-4.2-6-5.3-23.5-18-34.5-25.3-6.6-4.3-12.2-8.1-12.5-8.4-.3-.3-1.4-1-2.5-1.6-7.7-4.2-12.1-6.7-13-7.4-1.8-1.5-32.9-16.8-39.5-19.5-3.6-1.4-7.4-3-8.5-3.5-4.6-2.2-29.3-10.9-35.5-12.5-.8-.2-4-1.1-7-2-3-.9-7.3-2-9.5-2.5s-6.6-1.6-9.8-2.4c-3.1-.9-7.2-1.8-9-2.1-1.7-.3-5.7-1-8.7-1.5-3-.6-7.1-1.3-9-1.5-1.9-.3-4.6-.7-6-1-3.4-.7-10.4-1.6-16.2-2.1-2.7-.2-7.2-.6-10-.9-5.5-.6-58.6-1.4-59-.9zm50.2 25.8c1.9.3 4.6.7 6 1 1.4.3 4.5 1 7 1.5 24.4 5 48.7 16.3 70.9 33 6.6 4.9 23 20.5 27.1 25.7.8 1 3.1 3.9 5 6.4 1.9 2.5 3.8 4.6 4.3 4.8.4.2.7.9.7 1.7 0 .7.6 1.8 1.4 2.4 2.9 2.4 18.6 32 18.6 35 0 .5.7 2.2 1.5 3.7.8 1.6 1.5 3.7 1.5 4.6 0 .9.5 2 1 2.3.6.4 1 1.2.8 1.8-.1.7.5 3.7 1.4 6.7 2.4 7.8 5.1 22.9 4.4 24.5-.3.8-.1 1.7.4 2 .5.3.9 1.6.9 2.8 0 1.2 0 8.7.1 16.7 0 8-.2 15.6-.4 17-.3 1.4-.7 4.5-1 7-1.5 11-5.3 27.2-8.3 35-.4.8-.7 1.7-.8 2-.1.3-.7 1.8-1.3 3.3-.7 1.6-1.2 3-1.2 3.3 0 1.1-9.3 19.4-10.1 20-.5.3-.7 1-.4 1.5.4.5.2.9-.2.9-.5 0-1.7 1.7-2.8 3.7-7 12.9-28.8 37.3-41.5 46.3-3.8 2.6-4 2.8-8.5 6.4-3.8 2.9-22.6 13.6-24.1 13.6-.6 0-1.7.7-2.4 1.5-.7.9-1.5 1.3-1.8 1-.3-.3-1.5.1-2.6.8-1.2.8-3 1.6-4.1 1.9-1.1.3-5 1.7-8.7 3.1-3.8 1.4-6.8 2.4-6.8 2.2 0-.2-2.6.5-5.7 1.6-3.2 1.1-5.9 1.9-6.1 1.8-.2-.1-12.6 1.9-17.2 2.7-8.4 1.7-36.9 1.1-49.5-1-1.6-.3-4.6-.7-6.5-1.1-4-.6-8.1-1.6-16.5-4.1-3.3-1-6.2-1.9-6.5-1.9-4.1-.6-30.6-13.1-35.4-16.8l-8.1-5.4c-3.8-2.5-7.2-4.9-7.5-5.2-.3-.3-2.2-1.9-4.3-3.5-6.8-5-22.9-21.9-29.7-31.1-11.8-16-20.8-33-26.6-50.5-1.6-4.7-2.9-9-3-9.5-.1-.6-.3-1.3-.4-1.8-.3-.8-.3-.8-1.5-6.2-.5-2.2-.9-4.2-1-4.5-.4-1.4-1.9-11.8-1.9-13.5-.1-1.1-.4-2.5-.7-3-.7-1.3-.4-34 .4-38 .3-1.7.8-5 1.2-7.5 2-13.9 7.2-30.9 13.6-45.4 3.5-7.7 15.1-28.2 16.8-29.6.3-.3 2.6-3.2 5-6.5 2.5-3.3 9.2-10.7 15-16.5 14.4-14.4 26.1-22.9 45.1-33.1 2.1-1.2 13.3-6.2 14.3-6.5.4-.1.9-.3 1.2-.4.3-.1.8-.3 1.3-.4.4-.1 1.2-.4 1.7-.8 2.4-1.5 24.6-7.4 31-8.2 9.8-1.3 13-1.8 13.4-2.2.5-.4 37.7.4 42.1 1z"/><path d="M456.8 366.5c-.1.1-2.5.5-5.3.9-2.7.3-6.8 1-9 1.6-2.2.6-4.8 1.3-5.9 1.5-7.6 1.8-22.5 9.2-31.9 15.9-9.4 6.7-26.7 25-26.7 28.3 0 .3-.6 1.4-1.4 2.2-2.5 2.8-7.3 12.6-9.5 19.7-1.3 3.8-2.5 7.6-2.8 8.4-.3.8-.7 2.2-.9 3-.2.8-.6 3.1-.9 5-.4 1.9-.9 4.6-1.2 6-1.4 7.4-.5 28.5 1.6 35.8.5 1.8 1 3.6 1.1 4 .3 1.9 1.2 5.9 1.7 7.2.3.8.7 2 .9 2.7.1.7 1.8 4.6 3.8 8.7 2 4.1 3.6 7.9 3.6 8.5 0 .6.4 1.1.8 1.1.5 0 1.5 1.2 2.3 2.7.8 1.6 2.4 3.9 3.7 5.3 1.2 1.4 2.2 2.9 2.2 3.5 0 .9 15.4 16.2 19.1 19 26.9 20.5 61.7 27.1 94.4 17.9 33.5-9.4 60.7-35.3 72-68.6 3-9 3.1-9.5 5.1-23.3.5-3.6.5-16 0-19.5-.2-1.4-.4-3.7-.5-5.2-.1-2.9.3-2.9-9.6-1.3-2.2.3-5.1.8-6.5 1-2.3.3-17.7 2.8-25.8 4.1-1.7.3-4.9.7-7 1-2 .2-4.4.6-5.2.9-.8.2-3.9.7-6.9 1-3 .4-6.3.9-7.5 1.1-1.2.3-3.3.6-4.7.8-4.9.7-18.4 2.8-19.9 3.1-.8.1-3.5.6-6 1s-5.3.9-6.2 1.1c-1 .1-1.8.1-1.8-.1 0-1 20.5-42.1 21.3-42.6.5-.3.8-.9.7-1.3 0-.3 5.6-12.1 12.5-26.1 7-14 12.4-25.9 12.1-26.4-.3-.5-1.7-1.2-3-1.5-1.4-.3-3.5-1-4.8-1.5-1.3-.5-2.5-.8-2.8-.8-.3 0-1.4-.5-2.6-1.1-1.1-.6-3.2-1.3-4.5-1.6-1.3-.3-3.5-.8-4.9-1.1-8.1-1.8-31.8-3.3-33.2-2z"/></svg>