<svg xmlns="http://www.w3.org/2000/svg" width="48" height="48" viewBox="0 0 48 48"><g data-name="Layer 2"><path fill="none" d="M0 0h48v48H0z" data-name="invisible box"/><g data-name="icons Q2"><path d="M18 34a2 2 0 0 0 2-2v-7.2l1.6 1.6a1.9 1.9 0 0 0 3-.2 2.1 2.1 0 0 0-.2-2.7l-5-4.9a1.9 1.9 0 0 0-2.8 0l-5 4.9a2.1 2.1 0 0 0-.2 2.7 1.9 1.9 0 0 0 3 .2l1.6-1.6V32a2 2 0 0 0 2 2zm18.6-5.2a1.9 1.9 0 0 0-3-.2L32 30.2V23a2 2 0 0 0-4 0v7.2l-1.6-1.6a1.9 1.9 0 0 0-3 .2 2.1 2.1 0 0 0 .2 2.7l5 4.9a1.9 1.9 0 0 0 2.8 0l5-4.9a2.1 2.1 0 0 0 .2-2.7z"/><path d="M40.5 21.8a9.1 9.1 0 0 0-3.4-6.5 9.8 9.8 0 0 0-7.5-2.3 12.2 12.2 0 0 0-10.1-6 11.6 11.6 0 0 0-8.9 4 12.4 12.4 0 0 0-3.2 8.4 11.8 11.8 0 0 0-5.2 8.2 11.5 11.5 0 0 0 3.1 10.2A12.4 12.4 0 0 0 14 41h9a2 2 0 0 0 0-4h-9a8 8 0 0 1-5.9-2.1 7.6 7.6 0 0 1-2-6.7 7.3 7.3 0 0 1 1.5-3.5 8.1 8.1 0 0 1 2.7-2.5 1.8 1.8 0 0 0 1.1-1.9 9.1 9.1 0 0 1 2.2-6.6 7.7 7.7 0 0 1 5.9-2.7 7 7 0 0 1 4.4 1.6 8.8 8.8 0 0 1 2.8 3.4 2 2 0 0 0 1.8 1.2h.5a6.4 6.4 0 0 1 5.7 1.3 6 6 0 0 1 1.8 4.4v.4a1.7 1.7 0 0 0 1.2 1.7h.2a6.1 6.1 0 0 1-1.3 11.8 2 2 0 0 0-1.6 2 1.9 1.9 0 0 0 2.4 1.9 10.1 10.1 0 0 0 8.6-9.6 9.9 9.9 0 0 0-5.5-9.3z"/></g></g></svg>