<svg xmlns="http://www.w3.org/2000/svg" width="48" height="48" viewBox="0 0 48 48"><g data-name="Layer 2"><path fill="none" d="M0 0h48v48H0z" data-name="invisible box"/><g data-name="Q3 icons"><path d="M22 35h-.5a2 2 0 0 1-1.4-2.5l4-17.9a2 2 0 1 1 3.8 1l-4 18A1.9 1.9 0 0 1 22 35zm-5-4a2 2 0 0 0 1.3-3.5L14 24l4.3-3.5a2 2 0 1 0-2.6-3l-6 5a2 2 0 0 0 0 3l6 5a1.9 1.9 0 0 0 1.3.5zm14 0a2 2 0 0 1-1.3-3.5L34 24l-4.3-3.5a2 2 0 0 1 2.6-3l6 5a2 2 0 0 1 0 3l-6 5a1.9 1.9 0 0 1-1.3.5z"/><path d="M44 6H4a2 2 0 0 0-2 2v32a2 2 0 0 0 2 2h40a2 2 0 0 0 2-2V8a2 2 0 0 0-2-2zm-2 32H6V10h36z"/></g></g></svg>