<svg xmlns="http://www.w3.org/2000/svg" width="48" height="48" viewBox="0 0 48 48"><g data-name="Layer 2"><path fill="none" d="M0 0h48v48H0z" data-name="invisible box"/><path d="M28.9 41.8H45a.9.9 0 0 0 1-1 .6.6 0 0 0-.1-.4l-8-13.7a1.1 1.1 0 0 0-1.4-.3l-.3.3-8.1 13.6a1 1 0 0 0 .3 1.3zm2.6-11l4.2-7.1a.9.9 0 0 0 0-1l-10.6-18a.9.9 0 0 0-1.3-.3c-.2 0-.3.2-.4.3l-4.2 7.1a1.1 1.1 0 0 0 0 1.1l10.6 17.9a.9.9 0 0 0 1.3.3zM16.8 15.7L2.1 40.3a1 1 0 0 0 .4 1.3l.5.2h21.3a.9.9 0 0 0 .8-.5l4-6.6a.9.9 0 0 0 0-1l-10.6-18a1.1 1.1 0 0 0-1.4-.3z" data-name="Q3 icons"/></g></svg>