<svg xmlns="http://www.w3.org/2000/svg" width="48" height="48" viewBox="0 0 48 48"><g data-name="Layer 2"><path fill="none" d="M0 0h48v48H0z" data-name="invisible box"/><g data-name="icons Q2"><path d="M43.4 4.6a1.9 1.9 0 0 0-2.8 0L30 15.2a15.2 15.2 0 0 0-5.2-1.2l6.6-6.6a1.9 1.9 0 0 0 0-2.8 1.9 1.9 0 0 0-2.8 0l-4.1 4.1-4.1-4.1a1.9 1.9 0 0 0-2.8 0 1.9 1.9 0 0 0 0 2.8l4.1 4.1-3.7 3.7L7.4 4.6a1.9 1.9 0 0 0-2.8 0 1.9 1.9 0 0 0 0 2.8l9.8 9.8a16 16 0 1 0 19.2 0l9.8-9.8a1.9 1.9 0 0 0 0-2.8zM36 30a12 12 0 1 1-12-12 12 12 0 0 1 12 12z"/><path d="M29.1 27.9l-2.9-.4-1.3-2.9a1 1 0 0 0-1.8 0l-1.3 2.9-2.9.4a1.1 1.1 0 0 0-.6 1.8l2.1 2-.5 3.1a1.1 1.1 0 0 0 1.5 1.1L24 34l2.6 1.9a1.1 1.1 0 0 0 1.5-1.1l-.5-3.1 2.1-2a1.1 1.1 0 0 0-.6-1.8z"/></g></g></svg>