<svg xmlns="http://www.w3.org/2000/svg" width="48" height="48" viewBox="0 0 48 48"><g data-name="Layer 2"><path fill="none" d="M0 0h48v48H0z" data-name="invisible box"/><path d="M36 21h8a2 2 0 0 0 2-2v-8a2 2 0 0 0-2-2h-8a2 2 0 0 0-2 2v2h-8v3.3a6.8 6.8 0 0 0-4 0V6h-8V4a2 2 0 0 0-2-2H4a2 2 0 0 0-2 2v8a2 2 0 0 0 2 2h8a2 2 0 0 0 2-2v-2h4v8.7a8 8 0 0 0-1.7 3.3H14v-2a2 2 0 0 0-2-2H4a2 2 0 0 0-2 2v8a2 2 0 0 0 2 2h8a2 2 0 0 0 2-2v-2h2.3a8 8 0 0 0 1.7 3.3V38h-4v-2a2 2 0 0 0-2-2H4a2 2 0 0 0-2 2v8a2 2 0 0 0 2 2h8a2 2 0 0 0 2-2v-2h8V31.7a6.8 6.8 0 0 0 4 0V35h8v2a2 2 0 0 0 2 2h8a2 2 0 0 0 2-2v-8a2 2 0 0 0-2-2h-8a2 2 0 0 0-2 2v2h-4v-1.7a8 8 0 0 0 0-10.6V17h4v2a2 2 0 0 0 2 2zm2-8h4v4h-4zm-28-3H6V6h4zm0 16H6v-4h4zm0 16H6v-4h4zm28-11h4v4h-4zm-18-7a4 4 0 1 1 4 4 4 4 0 0 1-4-4z" data-name="icons Q2"/></g></svg>