<svg xmlns="http://www.w3.org/2000/svg" width="48" height="48" viewBox="0 0 48 48"><g data-name="Layer 2"><path fill="none" d="M0 0h48v48H0z" data-name="invisible box"/><path d="M38 29h-1.2l-7.9-11.7A7.8 7.8 0 0032 11a8 8 0 00-16 0 7.8 7.8 0 003.1 6.3l-7.9 11.8H10a8 8 0 108 8v-.6h12v.5a8 8 0 108-8zM24 7a4 4 0 11-4 4 4 4 0 014-4zM10 41a4 4 0 114-4 4 4 0 01-4 4zm21.5-8.6h-15a8.7 8.7 0 00-1.6-1.7l7.9-11.8h2.4l7.9 11.8a8.7 8.7 0 00-1.6 1.7zM38 41a4 4 0 114-4 4 4 0 01-4 4z" data-name="icons Q2"/></g></svg>