<svg xmlns="http://www.w3.org/2000/svg" width="48" height="48" viewBox="0 0 48 48"><g data-name="Layer 2"><path fill="none" d="M0 0h48v48H0z" data-name="invisible box"/><g data-name="icons Q2"><path d="M40 3H9a2 2 0 00-2 2v5H6a2 2 0 000 4h1v4H6a2 2 0 000 4h1v4H6a2 2 0 000 4h1v4H6a2 2 0 000 4h1v5a2 2 0 002 2h31a2 2 0 002-2V5a2 2 0 00-2-2zm-2 38H11v-3h1a2 2 0 000-4h-1v-4h1a2 2 0 000-4h-1v-4h1a2 2 0 000-4h-1v-4h1a2 2 0 000-4h-1V7h27z"/><path d="M17.5 22h14a1.5 1.5 0 001.5-1.5v-9a1.5 1.5 0 00-1.5-1.5h-14a1.5 1.5 0 00-1.5 1.5v9a1.5 1.5 0 001.5 1.5zm2.5-8h9v4h-9zm-2.5 13h14a1.5 1.5 0 000-3h-14a1.5 1.5 0 000 3z"/></g></g></svg>