<svg viewBox="0 0 321 109" xmlns="http://www.w3.org/2000/svg" fill-rule="evenodd" clip-rule="evenodd" stroke-linejoin="round" stroke-miterlimit="1.414"><g fill="#fff" fill-rule="nonzero"><path d="M45 38c-23.917 0-35 19.6-35 19.6s11.083 19.6 35 19.6 35-19.6 35-19.6S68.8 38 45 38zm.175 36.808c-9.504 0-17.208-7.704-17.208-17.208 0-9.504 7.704-17.208 17.208-17.208 9.504 0 17.208 7.704 17.208 17.208 0 9.504-7.704 17.208-17.208 17.208z"/><path d="M45 57.6l4.631-9.316a10.275 10.275 0 0 0-4.456-1.009c-5.703 0-10.325 4.622-10.325 10.325 0 5.703 4.622 10.325 10.325 10.325 5.703 0 10.325-4.622 10.325-10.325 0-.551-.044-1.09-.127-1.617L45 57.6zM112.345 20c3.337 0 5.97.826 7.897 2.479 1.928 1.652 2.892 4.034 2.892 7.144 0 3.013-.956 5.371-2.867 7.072-1.912 1.701-4.553 2.551-7.922 2.551h-7.679V54.41H100V20h12.345zm-1.361 15.164c2.43 0 4.236-.446 5.419-1.337 1.183-.891 1.774-2.292 1.774-4.204 0-3.694-2.398-5.54-7.193-5.54h-6.318v11.081h6.318zm25.953-4.375c2.916 0 5.225.665 6.926 1.993 1.701 1.329 2.6 3.175 2.697 5.541v12.344c0 1.167.065 2.414.194 3.743h-3.888a37.908 37.908 0 0 1-.145-3.5h-.098c-1.004 1.491-2.162 2.544-3.475 3.16-1.312.615-2.843.923-4.592.923-2.366 0-4.285-.632-5.76-1.896-1.474-1.263-2.211-2.932-2.211-5.005 0-2.625 1.102-4.609 3.305-5.954 2.203-1.345 5.314-2.017 9.331-2.017h3.257v-.826c0-1.556-.511-2.779-1.531-3.67-1.021-.891-2.358-1.336-4.01-1.336-1.231 0-2.309.186-3.232.559-.923.372-2.017 1.061-3.281 2.065l-2.624-2.721c2.495-2.204 5.541-3.338 9.137-3.403zm-5.978 16.962c0 2.495 1.652 3.743 4.957 3.743 1.977 0 3.556-.592 4.739-1.774 1.183-1.183 1.79-2.892 1.823-5.128v-1.263h-2.479c-2.851 0-5.071.364-6.658 1.093-1.588.729-2.382 1.839-2.382 3.329zm34.021-16.962c2.592 0 4.625.778 6.099 2.333 1.475 1.556 2.228 3.645 2.26 6.27V54.41h-4.374V40.656c0-1.782-.461-3.192-1.385-4.229-.923-1.037-2.211-1.555-3.864-1.555-2.041 0-3.62.68-4.738 2.041-1.118 1.361-1.677 3.176-1.677 5.444V54.41h-4.374V31.373h4.374v3.548h.097c.616-1.296 1.612-2.309 2.989-3.038 1.377-.729 2.908-1.094 4.593-1.094zm26.099 0c3.402 0 6.286 1.175 8.651 3.524s3.564 5.209 3.596 8.578c0 3.402-1.182 6.254-3.548 8.554-2.365 2.301-5.265 3.483-8.699 3.548-3.37 0-6.237-1.166-8.603-3.499-2.365-2.333-3.58-5.201-3.645-8.603 0-3.337 1.175-6.172 3.524-8.505 2.349-2.333 5.257-3.532 8.724-3.597zm-7.582 12.102c0 2.365.697 4.285 2.09 5.759 1.393 1.475 3.224 2.228 5.492 2.26 2.3 0 4.131-.737 5.492-2.211 1.361-1.474 2.057-3.41 2.09-5.808 0-2.365-.681-4.285-2.042-5.759-1.36-1.474-3.223-2.228-5.589-2.26-2.3 0-4.131.761-5.492 2.284-1.361 1.523-2.041 3.435-2.041 5.735zm37.86-12.102c3.403 0 6.181 1.118 8.336 3.354 2.154 2.236 3.264 5.152 3.329 8.748 0 3.597-1.102 6.505-3.305 8.724-2.203 2.22-5.006 3.346-8.408 3.378-1.685 0-3.256-.356-4.714-1.069-1.458-.713-2.56-1.653-3.305-2.819h-.098v17.01h-4.374V31.373h4.374v3.305h.098c.874-1.232 2.025-2.187 3.45-2.868 1.426-.68 2.965-1.021 4.617-1.021zm-8.165 12.102c0 2.398.705 4.334 2.115 5.808 1.409 1.474 3.232 2.211 5.467 2.211 2.333 0 4.172-.737 5.517-2.211 1.344-1.474 2.033-3.41 2.065-5.808 0-2.397-.688-4.325-2.065-5.783-1.378-1.458-3.232-2.204-5.565-2.236-2.301 0-4.131.753-5.492 2.26-1.361 1.507-2.042 3.426-2.042 5.759zm31.397-17.982v6.464h6.269v3.791h-6.269v11.081c0 1.49.211 2.64.632 3.45.421.81 1.312 1.215 2.673 1.215 1.296 0 2.333-.226 3.11-.68v3.985c-.842.454-2.171.713-3.985.778-1.75 0-3.102-.267-4.058-.802s-1.653-1.28-2.09-2.236c-.438-.955-.656-2.454-.656-4.495V35.164h-5.055v-3.791h5.055v-6.464h4.374zm22.454 5.88c3.531 0 6.277 1.11 8.238 3.33 1.96 2.219 2.956 5.273 2.989 9.161v1.215h-18.469c0 1.879.753 3.459 2.26 4.739 1.507 1.28 3.345 1.936 5.516 1.968 2.398 0 4.504-1.15 6.318-3.451l3.305 2.528c-2.462 3.143-5.864 4.714-10.206 4.714-3.532 0-6.375-1.126-8.529-3.378-2.155-2.252-3.265-5.16-3.33-8.724 0-3.434 1.11-6.294 3.33-8.578 2.219-2.284 5.078-3.459 8.578-3.524zm6.561 10.207c-.065-2.171-.681-3.832-1.847-4.982-1.166-1.15-2.77-1.725-4.811-1.725-1.361 0-2.584.332-3.67.996-1.085.664-1.936 1.523-2.551 2.576-.616 1.053-.924 2.098-.924 3.135h13.803zm17.691-10.207c1.749 0 3.313.324 4.69.973 1.377.648 2.438 1.587 3.183 2.818l-3.402 2.576c-1.296-1.523-2.867-2.284-4.714-2.284-1.102 0-2.017.243-2.746.729-.729.486-1.094 1.102-1.094 1.847 0 1.62 1.507 2.722 4.52 3.305 2.949.551 5.03 1.361 6.245 2.43 1.215 1.069 1.823 2.592 1.823 4.568 0 2.236-.851 3.994-2.552 5.274-1.701 1.279-3.977 1.936-6.828 1.968-2.139 0-3.896-.332-5.273-.996-1.377-.665-2.568-1.693-3.572-3.087l3.304-2.721c1.75 1.814 3.613 2.721 5.59 2.721 1.296 0 2.397-.259 3.304-.777.908-.519 1.361-1.231 1.361-2.139 0-1.587-1.458-2.689-4.374-3.305-3.24-.648-5.419-1.514-6.537-2.6-1.118-1.085-1.676-2.486-1.676-4.204 0-2.138.826-3.847 2.478-5.127 1.653-1.28 3.743-1.936 6.27-1.969zM108.557 73c.189 0 .283.094.283.283v12.656c0 .189-.094.283-.283.283h-1.663a.345.345 0 0 1-.34-.208l-4.911-10.615v10.54c0 .189-.094.283-.283.283h-1.077c-.189 0-.283-.094-.283-.283V73.283c0-.189.094-.283.283-.283h1.663c.151 0 .264.057.34.208l4.911 10.596V73.283c0-.189.094-.283.283-.283h1.077zm9.599 3.702c1.719 0 3.249 1.266 3.249 3.419v1.436c0 .359-.227.585-.605.585h-5.175v.964c0 1.133.642 1.737 1.757 1.737h.774c1.171 0 1.473-.34 1.946-.906.132-.151.226-.17.415-.038l.548.378c.189.132.189.245.075.396-.68.831-1.322 1.644-2.984 1.644h-.774c-2.059 0-3.4-1.417-3.4-3.476V80.14c0-2.134 1.341-3.438 3.4-3.438h.774zm1.624 4.137v-.85c0-1.247-.68-1.832-1.624-1.832h-.774c-1.115 0-1.757.585-1.757 1.851v.831h4.155zm10.506-2.607h-1.454v5.1c0 1.058.34 1.436 1.398 1.474.226 0 .321.151.302.358l-.019.775c-.019.208-.151.321-.378.321-2.247-.019-2.909-.982-2.909-2.947v-5.081h-.963c-.189 0-.283-.094-.283-.283v-.869c0-.208.094-.302.283-.302h.963v-1.152c0-.189.095-.284.284-.284h1.039c.189 0 .283.095.283.284v1.152h1.436c.207 0 .302.094.302.283v.888c0 .189-.114.283-.284.283zm17.344-1.454c.189 0 .284.113.227.321l-2.626 8.764c-.056.227-.226.359-.434.359h-.869c-.189 0-.359-.132-.434-.359-.643-2.115-1.36-4.325-2.022-6.743-.661 2.418-1.397 4.628-2.058 6.743-.076.227-.246.359-.435.359h-.869c-.208 0-.359-.132-.434-.359l-2.607-8.764c-.057-.208.038-.321.227-.321h1.058c.188 0 .283.113.34.321.604 2.285 1.152 4.628 1.888 7.178.737-2.55 1.417-4.893 2.022-7.178.056-.208.151-.321.34-.321h1.001c.207 0 .302.113.359.321.604 2.285 1.284 4.628 2.021 7.178.736-2.55 1.303-4.893 1.907-7.178.057-.208.152-.321.34-.321h1.058zm9.052-.076c2.059 0 3.343 1.304 3.343 3.438v2.758c0 2.096-1.284 3.419-3.343 3.419h-.888c-2.04 0-3.343-1.323-3.343-3.419V80.14c0-2.134 1.303-3.438 3.343-3.438h.888zm1.756 6.347v-3.06c0-1.247-.661-1.832-1.756-1.832h-.888c-1.096 0-1.738.585-1.738 1.832v3.06c0 1.19.642 1.794 1.738 1.794h.888c1.095 0 1.756-.604 1.756-1.794zm12.112-4.892c-.076.17-.227.207-.416.151a3.047 3.047 0 0 0-.982-.151h-.226c-1.247 0-2.003.699-2.248 1.133v6.649c0 .189-.095.283-.284.283h-1.038c-.189 0-.284-.094-.284-.283v-8.878c0-.189.095-.283.284-.283h1.038c.189 0 .284.094.284.283V78.1c.604-.944 1.605-1.398 2.833-1.398.491 0 .926.076 1.303.227.189.094.227.227.133.434l-.397.794zM175.862 73h1.038c.189 0 .284.094.284.283v7.537l3.778-3.834c.113-.133.226-.208.377-.208h1.19c.246 0 .359.264.133.491l-3.476 3.532 3.948 4.987c.151.189.075.434-.189.434h-1.039c-.208 0-.359-.056-.51-.283l-3.287-4.08-.925.925v3.155c0 .189-.095.283-.284.283h-1.038c-.189 0-.284-.094-.284-.283V73.283c0-.189.095-.283.284-.283zm28.473 0c.189 0 .283.094.283.283v.926c0 .189-.094.283-.283.283h-2.985v11.447c0 .189-.094.283-.283.283h-1.077c-.189 0-.283-.094-.283-.283V74.492h-3.003c-.189 0-.284-.094-.284-.283v-.926c0-.189.095-.283.284-.283h7.631zm9.127 3.702c1.719 0 3.249 1.266 3.249 3.419v1.436c0 .359-.227.585-.605.585h-5.175v.964c0 1.133.642 1.737 1.756 1.737h.775c1.171 0 1.473-.34 1.945-.906.133-.151.227-.17.416-.038l.548.378c.189.132.189.245.075.396-.68.831-1.322 1.644-2.984 1.644h-.775c-2.059 0-3.4-1.417-3.4-3.476V80.14c0-2.134 1.341-3.438 3.4-3.438h.775zm1.624 4.137v-.85c0-1.247-.68-1.832-1.624-1.832h-.775c-1.114 0-1.756.585-1.756 1.851v.831h4.155zm6.672-7.556c0-.189.094-.283.283-.283h1.039c.189 0 .283.094.283.283v12.656c0 .189-.094.283-.283.283h-1.039c-.189 0-.283-.094-.283-.283V73.283zm10.827 3.419c1.719 0 3.249 1.266 3.249 3.419v1.436c0 .359-.227.585-.605.585h-5.175v.964c0 1.133.642 1.737 1.756 1.737h.775c1.171 0 1.473-.34 1.945-.906.133-.151.227-.17.416-.038l.548.378c.189.132.189.245.075.396-.68.831-1.322 1.644-2.984 1.644h-.775c-2.058 0-3.4-1.417-3.4-3.476V80.14c0-2.134 1.342-3.438 3.4-3.438h.775zm1.624 4.137v-.85c0-1.247-.68-1.832-1.624-1.832h-.775c-1.114 0-1.756.585-1.756 1.851v.831h4.155zm16.834-4.137c2.153 0 2.89 1.247 2.89 3.344v5.893c0 .189-.094.283-.283.283h-1.039c-.189 0-.283-.094-.283-.283v-5.988c0-1.209-.416-1.794-1.587-1.794h-.283c-1.247 0-2.003.699-2.248 1.133v6.649c0 .189-.095.283-.284.283h-1.038c-.189 0-.284-.094-.284-.283v-5.988c0-1.209-.415-1.794-1.586-1.794h-.284c-1.246 0-2.002.699-2.248 1.133v6.649c0 .189-.094.283-.283.283h-1.039c-.189 0-.283-.094-.283-.283v-8.878c0-.189.094-.283.283-.283h1.039c.189 0 .283.094.283.283V78.1c.529-.812 1.436-1.398 2.683-1.398h.151c1.473 0 2.285.605 2.644 1.662l.246-.264c.529-.812 1.435-1.398 2.682-1.398h.151zm12.112 0c1.719 0 3.249 1.266 3.249 3.419v1.436c0 .359-.227.585-.605.585h-5.175v.964c0 1.133.642 1.737 1.756 1.737h.775c1.171 0 1.473-.34 1.945-.906.132-.151.227-.17.416-.038l.548.378c.188.132.188.245.075.396-.68.831-1.322 1.644-2.984 1.644h-.775c-2.059 0-3.4-1.417-3.4-3.476V80.14c0-2.134 1.341-3.438 3.4-3.438h.775zm1.624 4.137v-.85c0-1.247-.68-1.832-1.624-1.832h-.775c-1.114 0-1.756.585-1.756 1.851v.831h4.155zm10.506-2.607h-1.454v5.1c0 1.058.34 1.436 1.397 1.474.227 0 .322.151.303.358l-.019.775c-.019.208-.151.321-.378.321-2.248-.019-2.909-.982-2.909-2.947v-5.081h-.963c-.189 0-.284-.094-.284-.283v-.869c0-.208.095-.302.284-.302h.963v-1.152c0-.189.095-.284.283-.284h1.039c.189 0 .284.095.284.284v1.152h1.435c.208 0 .302.094.302.283v.888c0 .189-.113.283-.283.283zm10.714-.075c-.076.17-.227.207-.416.151a3.047 3.047 0 0 0-.982-.151h-.227c-1.246 0-2.002.699-2.247 1.133v6.649c0 .189-.095.283-.284.283h-1.039c-.188 0-.283-.094-.283-.283v-8.878c0-.189.095-.283.283-.283h1.039c.189 0 .284.094.284.283V78.1c.604-.944 1.605-1.398 2.833-1.398.491 0 .926.076 1.303.227.189.094.227.227.133.434l-.397.794zm12.697-1.379c.208 0 .227.151.151.321l-4.987 12.58c-.113.264-.264.321-.415.321h-1.02c-.227 0-.265-.151-.189-.34l1.568-3.948-3.419-8.613c-.057-.17-.038-.321.17-.321h1.114c.151 0 .246.075.34.302l2.588 6.649 2.645-6.649c.094-.227.17-.302.34-.302h1.114z"/></g></svg>