<svg viewBox="0 0 949 718" xmlns="http://www.w3.org/2000/svg" fill-rule="evenodd" clip-rule="evenodd" stroke-linejoin="round" stroke-miterlimit="1.414"><path fill="none" d="M0 0h948.798v717.165H0z"/><g fill-rule="nonzero"><path d="M465.517 155.103c-247.414 0-362.069 202.759-362.069 202.759s114.655 202.759 362.069 202.759c247.414 0 362.069-202.759 362.069-202.759S711.724 155.103 465.517 155.103zm1.811 380.776c-98.314 0-178.018-79.703-178.018-178.017s79.704-178.017 178.018-178.017c98.313 0 178.017 79.703 178.017 178.017s-79.704 178.017-178.017 178.017z"/><path d="M465.517 357.862l47.906-96.375c-13.952-6.686-29.585-10.435-46.095-10.435-58.994 0-106.811 47.817-106.811 106.81s47.817 106.81 106.811 106.81c58.993 0 106.81-47.817 106.81-106.81 0-5.696-.459-11.28-1.312-16.728l-107.309 16.728z"/></g></svg>