<svg xmlns="http://www.w3.org/2000/svg" width="320.897" height="108.207"><path xmlns="http://www.w3.org/2000/svg" d="M45 38c-23.917 0-35 19.6-35 19.6s11.083 19.6 35 19.6 35-19.6 35-19.6S68.8 38 45 38zm.175 36.808c-9.504 0-17.208-7.704-17.208-17.208s7.704-17.208 17.208-17.208S62.383 48.096 62.383 57.6 54.68 74.808 45.175 74.808z"/><path xmlns="http://www.w3.org/2000/svg" d="M45 57.6l4.63-9.316a10.283 10.283 0 0 0-4.455-1.009c-5.703 0-10.325 4.622-10.325 10.325 0 5.703 4.622 10.325 10.325 10.325S55.5 63.303 55.5 57.6c0-.55-.044-1.09-.127-1.617L45 57.6z"/><path d="M112.345 20q5.006 0 7.897 2.479t2.892 7.144q0 4.52-2.867 7.072t-7.922 2.551h-7.68V54.41H100V20h12.345zm-1.361 15.164q3.645 0 5.419-1.337t1.774-4.204q0-5.54-7.193-5.54h-6.318v11.08h6.318zm25.953-4.375q4.374 0 6.926 1.993t2.697 5.54v12.345q0 1.75.194 3.743h-3.888q-.145-1.556-.145-3.5h-.098q-1.506 2.236-3.475 3.16t-4.592.923q-3.548 0-5.76-1.896t-2.211-5.005q0-3.937 3.305-5.954t9.331-2.017h3.257v-.826q0-2.333-1.531-3.67t-4.01-1.336q-1.847 0-3.232.559t-3.28 2.065l-2.625-2.721q3.742-3.305 9.137-3.403zm-5.978 16.962q0 3.743 4.957 3.743 2.965 0 4.739-1.774t1.823-5.128V43.33h-2.48q-4.276 0-6.657 1.093t-2.382 3.33zM164.98 30.79q3.888 0 6.1 2.333t2.26 6.27V54.41h-4.375V40.656q0-2.674-1.385-4.229t-3.864-1.555q-3.062 0-4.738 2.041t-1.677 5.444V54.41h-4.374V31.373h4.374v3.548h.097q.924-1.944 2.99-3.038t4.592-1.094zm26.099 0q5.103 0 8.65 3.524t3.597 8.578q0 5.103-3.548 8.554t-8.7 3.548q-5.054 0-8.602-3.5t-3.645-8.602q0-5.006 3.524-8.505t8.724-3.597zm-7.582 12.102q0 3.548 2.09 5.76t5.492 2.26q3.45 0 5.492-2.212t2.09-5.808q0-3.548-2.042-5.759t-5.589-2.26q-3.45 0-5.492 2.284t-2.04 5.735zm37.86-12.102q5.104 0 8.336 3.354t3.329 8.748q0 5.395-3.305 8.724t-8.408 3.378q-2.527 0-4.714-1.07t-3.305-2.818h-.098v17.01h-4.374V31.373h4.374v3.305h.098q1.312-1.847 3.45-2.868t4.617-1.02zm-8.165 12.102q0 3.597 2.115 5.808t5.467 2.211q3.5 0 5.517-2.21t2.065-5.809q0-3.596-2.065-5.783t-5.565-2.236q-3.451 0-5.492 2.26t-2.042 5.76zM244.59 24.91v6.464h6.27v3.79h-6.27v11.082q0 2.235.632 3.45t2.673 1.215q1.944 0 3.11-.68v3.985q-1.263.68-3.985.778-2.624 0-4.058-.802t-2.09-2.236-.656-4.495V35.164h-5.055v-3.791h5.055v-6.464h4.374zm22.454 5.88q5.297 0 8.238 3.33t2.989 9.161v1.215H259.8q0 2.819 2.26 4.739t5.516 1.968q3.597 0 6.318-3.45l3.305 2.527q-3.693 4.714-10.206 4.714-5.297 0-8.53-3.378t-3.329-8.724q0-5.152 3.33-8.578t8.578-3.524zm6.56 10.207q-.096-3.257-1.846-4.982t-4.811-1.725q-2.042 0-3.67.996t-2.551 2.576-.924 3.135h13.803zm17.692-10.207q2.624 0 4.69.973t3.183 2.818l-3.402 2.576q-1.944-2.284-4.714-2.284-1.653 0-2.746.729t-1.094 1.847q0 2.43 4.52 3.305 4.423.826 6.245 2.43t1.823 4.568q0 3.354-2.552 5.274t-6.828 1.968q-3.208 0-5.273-.996t-3.572-3.087l3.304-2.721q2.625 2.721 5.59 2.721 1.944 0 3.304-.777t1.361-2.139q0-2.381-4.374-3.305-4.86-.972-6.537-2.6t-1.676-4.204q0-3.207 2.478-5.127t6.27-1.969zM108.557 73c.189 0 .283.094.283.283V85.94c0 .189-.094.283-.283.283h-1.663a.346.346 0 0 1-.34-.208l-4.91-10.615v10.54c0 .189-.095.283-.284.283h-1.077c-.189 0-.283-.094-.283-.283V73.283c0-.189.094-.283.283-.283h1.663c.15 0 .264.057.34.208l4.91 10.596v-10.52c0-.19.095-.284.284-.284h1.077zm9.599 3.702c1.719 0 3.249 1.266 3.249 3.42v1.435c0 .359-.227.585-.605.585h-5.175v.964c0 1.133.642 1.737 1.757 1.737h.774c1.171 0 1.473-.34 1.946-.906.132-.151.226-.17.415-.038l.548.378c.189.132.189.245.075.396-.68.831-1.322 1.644-2.984 1.644h-.774c-2.06 0-3.4-1.417-3.4-3.476V80.14c0-2.134 1.34-3.438 3.4-3.438h.774zm1.624 4.137v-.85c0-1.247-.68-1.832-1.624-1.832h-.774c-1.115 0-1.757.585-1.757 1.85v.832h4.155zm10.506-2.607h-1.454v5.1c0 1.058.34 1.436 1.398 1.474.226 0 .32.15.302.358l-.019.775c-.019.208-.151.321-.378.321-2.247-.019-2.909-.982-2.909-2.947v-5.08h-.963c-.189 0-.283-.095-.283-.284v-.869c0-.208.094-.302.283-.302h.963v-1.152c0-.19.095-.284.284-.284h1.039c.189 0 .283.095.283.284v1.152h1.436c.207 0 .302.094.302.283v.888c0 .189-.114.283-.284.283zm17.344-1.454c.19 0 .284.113.227.32l-2.626 8.765c-.056.227-.226.36-.434.36h-.869c-.189 0-.359-.133-.434-.36-.643-2.115-1.36-4.325-2.022-6.743-.66 2.418-1.397 4.628-2.058 6.743-.076.227-.246.36-.435.36h-.869c-.208 0-.359-.133-.434-.36l-2.607-8.764c-.057-.208.038-.321.227-.321h1.058c.188 0 .283.113.34.32.604 2.286 1.152 4.629 1.888 7.179.737-2.55 1.417-4.893 2.022-7.178.056-.208.15-.321.34-.321h1c.208 0 .303.113.36.32.604 2.286 1.284 4.629 2.02 7.179.737-2.55 1.304-4.893 1.908-7.178.057-.208.152-.321.34-.321h1.058zm9.052-.076c2.059 0 3.343 1.304 3.343 3.438v2.758c0 2.096-1.284 3.419-3.343 3.419h-.888c-2.04 0-3.343-1.323-3.343-3.42V80.14c0-2.134 1.303-3.438 3.343-3.438h.888zm1.756 6.347v-3.06c0-1.247-.66-1.832-1.756-1.832h-.888c-1.096 0-1.738.585-1.738 1.832v3.06c0 1.19.642 1.794 1.738 1.794h.888c1.095 0 1.756-.604 1.756-1.794zm12.112-4.892c-.076.17-.227.207-.416.15a3.066 3.066 0 0 0-.982-.15h-.226c-1.247 0-2.003.699-2.248 1.133v6.649c0 .189-.095.283-.284.283h-1.038c-.19 0-.284-.094-.284-.283V77.06c0-.189.095-.283.284-.283h1.038c.19 0 .284.094.284.283v1.04c.604-.944 1.605-1.398 2.833-1.398.491 0 .926.076 1.303.227.19.094.227.227.133.434zM175.862 73h1.038c.19 0 .284.094.284.283v7.537l3.778-3.834c.113-.133.226-.208.377-.208h1.19c.246 0 .36.264.133.49l-3.476 3.533 3.948 4.987c.15.189.075.434-.19.434h-1.038c-.208 0-.359-.056-.51-.283l-3.287-4.08-.925.925v3.155c0 .189-.095.283-.284.283h-1.038c-.19 0-.284-.094-.284-.283V73.283c0-.189.095-.283.284-.283zm28.473 0c.189 0 .283.094.283.283v.926c0 .189-.094.283-.283.283h-2.985V85.94c0 .189-.094.283-.283.283h-1.077c-.189 0-.283-.094-.283-.283V74.492h-3.003c-.19 0-.284-.094-.284-.283v-.926c0-.189.095-.283.284-.283h7.631zm9.127 3.702c1.719 0 3.249 1.266 3.249 3.42v1.435c0 .359-.227.585-.605.585h-5.175v.964c0 1.133.642 1.737 1.756 1.737h.775c1.17 0 1.473-.34 1.945-.906.133-.151.227-.17.416-.038l.548.378c.189.132.189.245.075.396-.68.831-1.322 1.644-2.984 1.644h-.775c-2.059 0-3.4-1.417-3.4-3.476V80.14c0-2.134 1.341-3.438 3.4-3.438h.775zm1.624 4.137v-.85c0-1.247-.68-1.832-1.624-1.832h-.775c-1.114 0-1.756.585-1.756 1.85v.832h4.155zm6.672-7.556c0-.189.094-.283.283-.283h1.039c.189 0 .283.094.283.283V85.94c0 .189-.094.283-.283.283h-1.039c-.189 0-.283-.094-.283-.283V73.283zm10.827 3.42c1.719 0 3.249 1.265 3.249 3.418v1.436c0 .359-.227.585-.605.585h-5.175v.964c0 1.133.642 1.737 1.756 1.737h.775c1.171 0 1.473-.34 1.945-.906.133-.151.227-.17.416-.038l.548.378c.189.132.189.245.075.396-.68.831-1.322 1.644-2.984 1.644h-.775c-2.058 0-3.4-1.417-3.4-3.476V80.14c0-2.134 1.342-3.438 3.4-3.438h.775zm1.624 4.136v-.85c0-1.247-.68-1.832-1.624-1.832h-.775c-1.114 0-1.756.585-1.756 1.85v.832h4.155zm16.834-4.137c2.153 0 2.89 1.247 2.89 3.344v5.893c0 .189-.094.283-.283.283h-1.04c-.188 0-.282-.094-.282-.283V79.95c0-1.209-.416-1.794-1.587-1.794h-.283c-1.247 0-2.003.699-2.248 1.133v6.649c0 .189-.095.283-.284.283h-1.038c-.19 0-.284-.094-.284-.283V79.95c0-1.209-.415-1.794-1.586-1.794h-.284c-1.246 0-2.002.699-2.248 1.133v6.649c0 .189-.094.283-.283.283h-1.039c-.189 0-.283-.094-.283-.283V77.06c0-.189.094-.283.283-.283h1.04c.188 0 .282.094.282.283v1.04c.53-.812 1.436-1.398 2.683-1.398h.15c1.474 0 2.286.605 2.645 1.662l.246-.264c.529-.812 1.435-1.398 2.682-1.398h.151zm12.112 0c1.719 0 3.249 1.266 3.249 3.42v1.435c0 .359-.227.585-.605.585h-5.175v.964c0 1.133.642 1.737 1.756 1.737h.775c1.17 0 1.473-.34 1.945-.906.132-.151.227-.17.416-.038l.548.378c.188.132.188.245.075.396-.68.831-1.322 1.644-2.984 1.644h-.775c-2.059 0-3.4-1.417-3.4-3.476V80.14c0-2.134 1.341-3.438 3.4-3.438h.775zm1.624 4.137v-.85c0-1.247-.68-1.832-1.624-1.832h-.775c-1.114 0-1.756.585-1.756 1.85v.832h4.155zm10.506-2.607h-1.454v5.1c0 1.058.34 1.436 1.397 1.474.227 0 .322.15.303.358l-.02.775c-.018.208-.15.321-.377.321-2.248-.019-2.909-.982-2.909-2.947v-5.08h-.963c-.19 0-.284-.095-.284-.284v-.869c0-.208.095-.302.284-.302h.963v-1.152c0-.19.095-.284.283-.284h1.04c.188 0 .283.095.283.284v1.152h1.435c.208 0 .302.094.302.283v.888c0 .189-.113.283-.283.283zM286 78.157c-.076.17-.227.207-.416.15a3.066 3.066 0 0 0-.982-.15h-.227c-1.246 0-2.002.699-2.247 1.133v6.649c0 .189-.095.283-.284.283h-1.039c-.188 0-.283-.094-.283-.283V77.06c0-.189.095-.283.283-.283h1.04c.188 0 .283.094.283.283v1.04c.604-.944 1.605-1.398 2.833-1.398.491 0 .926.076 1.303.227.19.094.227.227.133.434zm12.697-1.38c.208 0 .227.152.151.322l-4.987 12.58c-.113.264-.264.321-.415.321h-1.02c-.227 0-.265-.151-.189-.34l1.568-3.948-3.42-8.613c-.056-.17-.037-.321.17-.321h1.115c.151 0 .246.075.34.302l2.588 6.649 2.645-6.649c.094-.227.17-.302.34-.302h1.114z"/></svg>