<svg xmlns="http://www.w3.org/2000/svg" viewBox="0 0 512.001 512.001"><path d="M438.727 290.856H73.272c-26.875 0-48.739 21.864-48.739 48.739a48.018 48.018 0 00.095 2.917c.031.518.071 1.035.118 1.55.022.247.042.495.068.74.071.658.153 1.314.251 1.967.049.329.108.654.164.981a47.073 47.073 0 00.423 2.201c.06.275.126.549.19.822.193.818.405 1.627.639 2.427.041.139.077.279.119.418.13.434.27.862.412 1.291a47.511 47.511 0 00.668 1.895c.069.183.144.363.215.544.279.71.573 1.412.884 2.106.123.275.245.55.373.824a49.739 49.739 0 00.994 1.989c.133.253.264.507.402.758.326.594.663 1.181 1.014 1.761.053.087.11.174.164.261a49.966 49.966 0 001.241 1.919 48.721 48.721 0 0019.129 16.522c.094.046.191.088.286.134.375.178.748.357 1.128.526l.319.129a47.67 47.67 0 002.719 1.101l74.184 30.047c.115.05.232.091.347.14.484.207.977.397 1.468.593.508.202 1.014.412 1.525.602.508.189 1.025.357 1.539.532.516.177 1.03.362 1.549.525.443.139.894.259 1.342.388.602.175 1.203.359 1.81.515.292.075.592.136.887.207.766.187 1.531.375 2.303.533l.073.013a64.837 64.837 0 0012.485 1.296c.175.001.346.013.521.013h198.843l.037-.001.037.001a64.55 64.55 0 0026.107-5.496l74.623-30.216a49.984 49.984 0 001.757-.712l.042-.017.465-.197c.381-.169.754-.348 1.128-.526.095-.045.192-.087.286-.134a48.737 48.737 0 0019.129-16.522l.191-.282c.359-.537.71-1.083 1.049-1.635.054-.087.11-.173.164-.261.35-.58.688-1.167 1.014-1.761.137-.251.268-.505.402-.758a53.262 53.262 0 00.994-1.989c.128-.273.25-.549.373-.824.311-.694.605-1.396.884-2.106.071-.182.146-.362.215-.544a44.795 44.795 0 00.668-1.895c.142-.429.282-.857.412-1.291.042-.138.078-.279.119-.418.234-.801.446-1.61.639-2.427.064-.273.13-.546.19-.822a47.073 47.073 0 00.423-2.201c.055-.327.115-.652.164-.981.098-.652.18-1.308.251-1.967.026-.246.046-.494.068-.74.048-.515.087-1.032.118-1.55.014-.234.028-.466.039-.701.034-.736.056-1.474.056-2.216-.003-26.874-21.866-48.737-48.741-48.737zM73.272 357.864c-2.346 0-4.584-.46-6.647-1.27l-.685-.277a18.09 18.09 0 01-1.246-.601c-.049-.025-.1-.048-.147-.074-.476-.26-.939-.544-1.388-.844-.091-.061-.18-.127-.27-.189a18.522 18.522 0 01-1.068-.798c-.09-.073-.181-.144-.27-.219a18.347 18.347 0 01-2.273-2.273c-.086-.103-.168-.209-.252-.313a18.302 18.302 0 01-.721-.964c-.09-.129-.182-.256-.268-.387a18.437 18.437 0 01-.79-1.3c-.062-.113-.114-.23-.173-.343a18.93 18.93 0 01-.509-1.054 17.278 17.278 0 01-.595-1.543c-.061-.18-.126-.357-.181-.538-.144-.478-.27-.964-.376-1.458-.035-.16-.059-.325-.089-.488a18.25 18.25 0 01-.18-1.174c-.02-.169-.04-.337-.056-.507a18.373 18.373 0 01-.083-1.65c-.002-10.076 8.194-18.27 18.267-18.27s18.268 8.195 18.268 18.268-8.194 18.266-18.268 18.266zm83.307 32.453a34.316 34.316 0 01-6.82-.682c-.044-.009-.087-.015-.131-.023a33.583 33.583 0 01-1.317-.305c-.126-.031-.253-.057-.378-.089-.376-.098-.746-.208-1.116-.318-.186-.055-.374-.106-.56-.164-.326-.103-.646-.216-.968-.328-.227-.079-.456-.154-.682-.238-.303-.113-.6-.235-.898-.354-.235-.094-.47-.187-.704-.286-12.291-5.282-20.92-17.503-20.92-31.707 0-19.021 15.473-34.494 34.494-34.494s34.495 15.473 34.495 34.494-15.474 34.494-34.495 34.494zm99.458-.001c-19.021 0-34.494-15.474-34.494-34.494 0-19.021 15.473-34.494 34.494-34.494s34.494 15.473 34.494 34.494-15.474 34.494-34.494 34.494zm113.799-3.135l-.192.077-.398.168a34.234 34.234 0 01-13.788 2.889c-19.003-.019-34.457-15.484-34.457-34.493 0-19.021 15.473-34.494 34.494-34.494s34.495 15.473 34.495 34.494c-.001 13.905-8.275 25.905-20.154 31.359zm87.076-45.934c-.015.17-.036.338-.056.507-.047.395-.108.786-.18 1.173-.03.164-.055.328-.09.49a17.95 17.95 0 01-.376 1.456c-.055.182-.121.361-.182.54a17.769 17.769 0 01-1.104 2.596c-.059.114-.112.232-.173.343-.245.446-.511.878-.79 1.299-.087.132-.18.259-.27.389a18.4 18.4 0 01-.72.963c-.084.105-.166.21-.252.314-.69.823-1.45 1.583-2.273 2.273-.088.074-.18.146-.27.219a18.95 18.95 0 01-1.066.798c-.09.063-.18.128-.271.19-.45.3-.911.584-1.387.844-.049.026-.101.049-.149.075a18.28 18.28 0 01-1.245.6l-.687.278a18.169 18.169 0 01-6.645 1.27c-10.074 0-18.268-8.195-18.268-18.268s8.195-18.268 18.268-18.268 18.27 8.193 18.27 18.267c0 .559-.035 1.107-.084 1.652z"/><path d="M438.729 249.597h-25.017l-36.676-53.586h-98.163l36.812-15.248c21.086-8.735 40.043-19.559 53.38-30.481 12.634-10.345 26.278-26.093 19.533-42.377-3.153-7.613-11.556-16.688-33.68-16.688-18.437 0-43.731 6.097-69.393 16.727L72.915 196.01H60.709v54.485C36.523 253.938 14.437 267.192 0 287.417l24.801 17.703c11.198-15.688 29.318-25.053 48.471-25.053h365.456c19.153 0 37.273 9.366 48.471 25.053L512 287.417c-16.905-23.682-44.295-37.82-73.271-37.82zm-83.812-127.909l.466.002c-6.302 6.293-18.829 15.546-37.461 24.661l-6.481-15.648c16.659-5.726 32.265-9.015 43.476-9.015zm-71.808 20.238l6.841 16.515-90.701 37.569h-46.71l130.57-54.084zM91.18 249.597v-23.116h269.787l15.82 23.116H91.18z"/></svg>